<svg width="1440" height="53" viewBox="0 0 1440 53" fill="none" xmlns="http://www.w3.org/2000/svg">
<path fill-rule="evenodd" clip-rule="evenodd" d="M-28.5184 52.9701L-68.9108 23.9526L-109.307 52.9766L-68.9153 81.9941L-28.5184 52.9701Z" fill="url(#paint0_linear_3394_242399)"/>
<path d="M-136.607 75.6939C-142.338 75.6939 -147 80.3506 -147 86.078C-147 91.8043 -142.338 96.4632 -136.607 96.4632C-130.875 96.4632 -126.214 91.8054 -126.214 86.078C-126.212 80.3506 -130.875 75.6939 -136.607 75.6939ZM-136.607 91.8512C-139.794 91.8512 -142.387 89.2617 -142.387 86.078C-142.387 82.8965 -139.794 80.3059 -136.607 80.3059C-133.42 80.3059 -130.829 82.8954 -130.829 86.078C-130.829 89.2617 -133.42 91.8512 -136.607 91.8512Z" fill="url(#paint1_linear_3394_242399)"/>
<path d="M-136.605 9.47835C-142.337 9.47835 -146.998 14.1362 -146.998 19.8635C-146.998 25.5898 -142.337 30.2498 -136.605 30.2498C-130.873 30.2498 -126.212 25.5898 -126.212 19.8635C-126.211 14.1372 -130.873 9.47835 -136.605 9.47835ZM-136.605 25.6378C-139.792 25.6378 -142.386 23.0472 -142.386 19.8635C-142.386 16.6798 -139.792 14.0904 -136.605 14.0904C-133.418 14.0904 -130.828 16.6798 -130.828 19.8635C-130.828 23.0483 -133.418 25.6378 -136.605 25.6378Z" fill="url(#paint2_linear_3394_242399)"/>
<path fill-rule="evenodd" clip-rule="evenodd" d="M106.538 52.9824L66.1452 23.965L25.7493 52.989L66.1407 82.0065L106.538 52.9824Z" fill="url(#paint3_linear_3394_242399)"/>
<path fill-rule="evenodd" clip-rule="evenodd" d="M241.594 52.9701L201.201 23.9526L160.805 52.9766L201.197 81.9941L241.594 52.9701Z" fill="url(#paint4_linear_3394_242399)"/>
<path d="M-1.34576 75.6939C-7.07684 75.6939 -11.7384 80.3506 -11.7384 86.078C-11.7384 91.8043 -7.07684 96.4632 -1.34576 96.4632C4.38641 96.4632 9.04799 91.8054 9.04799 86.078C9.04907 80.3506 4.38641 75.6939 -1.34576 75.6939ZM-1.34576 91.8512C-4.53212 91.8512 -7.12582 89.2617 -7.12582 86.078C-7.12582 82.8965 -4.53212 80.3059 -1.34576 80.3059C1.84169 80.3059 4.43214 82.8954 4.43214 86.078C4.43214 89.2617 1.84169 91.8512 -1.34576 91.8512Z" fill="url(#paint5_linear_3394_242399)"/>
<path d="M-1.41653 9.48436C-7.14761 9.48436 -11.8092 14.1422 -11.8092 19.8696C-11.8092 25.5959 -7.14761 30.2558 -1.41653 30.2558C4.31564 30.2558 8.97723 25.5959 8.97723 19.8696C8.97832 14.1433 4.31564 9.48436 -1.41653 9.48436ZM-1.41653 25.6438C-4.60289 25.6438 -7.19658 23.0533 -7.19658 19.8696C-7.19658 16.6859 -4.60289 14.0964 -1.41653 14.0964C1.77092 14.0964 4.36139 16.6859 4.36139 19.8696C4.36139 23.0543 1.77092 25.6438 -1.41653 25.6438Z" fill="url(#paint6_linear_3394_242399)"/>
<path d="M133.688 75.5166C127.957 75.5166 123.296 80.1733 123.296 85.9007C123.296 91.627 127.957 96.2859 133.688 96.2859C139.42 96.2859 144.082 91.6281 144.082 85.9007C144.083 80.1733 139.42 75.5166 133.688 75.5166ZM133.688 91.6739C130.502 91.6739 127.908 89.0844 127.908 85.9007C127.908 82.7192 130.502 80.1287 133.688 80.1287C136.876 80.1287 139.466 82.7181 139.466 85.9007C139.466 89.0844 136.876 91.6739 133.688 91.6739Z" fill="url(#paint7_linear_3394_242399)"/>
<path d="M133.688 9.49535C127.957 9.49535 123.296 14.1532 123.296 19.8805C123.296 25.6068 127.957 30.2668 133.688 30.2668C139.42 30.2668 144.082 25.6068 144.082 19.8805C144.083 14.1542 139.42 9.49535 133.688 9.49535ZM133.688 25.6548C130.502 25.6548 127.908 23.0642 127.908 19.8805C127.908 16.6968 130.502 14.1074 133.688 14.1074C136.876 14.1074 139.466 16.6968 139.466 19.8805C139.466 23.0653 136.876 25.6548 133.688 25.6548Z" fill="url(#paint8_linear_3394_242399)"/>
<path d="M-1.35913 47.5674L5.83295 53.0078L-1.4077 58.411L-8.59761 52.9728L-1.35913 47.5674Z" fill="url(#paint9_linear_3394_242399)"/>
<path d="M-68.9137 9.65239C-65.1115 6.93044 -68.3409 10.0635 -71.0319 8.13097C-70.3258 8.63811 -69.6198 9.14525 -68.9137 9.65239C-68.9321 9.66556 -68.9506 9.67885 -68.9694 9.69229C-71.4115 11.4455 -73.8493 13.1965 -76.2871 14.9487C-84.0773 20.5452 -91.8644 26.1385 -99.6524 31.734C-109.511 38.8149 -119.366 45.8974 -129.224 52.9781C-130.956 51.7335 -132.689 50.4889 -134.422 49.2443V56.7118C-132.689 55.4673 -130.956 54.2227 -129.224 52.9781C-109.12 67.4174 -89.0178 81.8575 -68.9137 96.2968C-72.714 99.0194 -69.4865 95.8862 -66.7959 97.8178C-67.5018 97.3108 -68.2077 96.8038 -68.9137 96.2968C-68.895 96.2834 -68.8762 96.2699 -68.8572 96.2562C-66.4172 94.503 -63.9761 92.752 -61.5394 90.9999C-53.7492 85.4066 -45.9622 79.8111 -38.1709 74.2167C-28.3137 67.1349 -18.4557 60.0538 -8.59761 52.9728L-1.4077 58.411C-23.1815 74.052 -44.9553 89.692 -66.7291 105.333C-67.8673 106.151 -69.9593 106.151 -71.0975 105.333C-93.6628 89.1267 -116.225 72.9182 -138.79 56.7108C-141.555 54.7231 -141.555 51.232 -138.79 49.2432C-116.225 33.0347 -93.6628 16.8229 -71.0975 0.613297C-69.9593 -0.204437 -67.8673 -0.204437 -66.7291 0.613297C-44.9391 16.266 -23.1492 31.9177 -1.35913 47.5674L-8.59761 52.9728C-28.7033 38.5324 -48.8089 24.0928 -68.9137 9.65239Z" fill="url(#paint10_linear_3394_242399)"/>
<path d="M268.834 75.6975C263.103 75.6975 258.441 80.3543 258.441 86.0816C258.441 91.8079 263.103 96.4668 268.834 96.4668C274.566 96.4668 279.227 91.809 279.227 86.0816C279.228 80.3543 274.566 75.6975 268.834 75.6975ZM268.834 91.8548C265.647 91.8548 263.053 89.2653 263.053 86.0816C263.053 82.9001 265.647 80.3096 268.834 80.3096C272.021 80.3096 274.612 82.899 274.612 86.0816C274.612 89.2653 272.021 91.8548 268.834 91.8548Z" fill="url(#paint11_linear_3394_242399)"/>
<path d="M268.807 9.50673C263.076 9.50673 258.414 14.1645 258.414 19.8919C258.414 25.6182 263.076 30.2782 268.807 30.2782C274.539 30.2782 279.201 25.6182 279.201 19.8919C279.202 14.1656 274.539 9.50673 268.807 9.50673ZM268.807 25.6662C265.621 25.6662 263.027 23.0756 263.027 19.8919C263.027 16.7082 265.621 14.1187 268.807 14.1187C271.995 14.1187 274.585 16.7082 274.585 19.8919C274.585 23.0767 271.995 25.6662 268.807 25.6662Z" fill="url(#paint12_linear_3394_242399)"/>
<path d="M268.722 58.4112L261.512 52.9876L268.727 47.5648L275.939 52.9907L268.722 58.4112Z" fill="url(#paint13_linear_3394_242399)"/>
<path d="M66.0872 9.72198C63.645 11.4752 61.2072 13.2262 58.7694 14.9783C50.9792 20.5749 43.1922 26.1682 35.4041 31.7637C25.5461 38.8446 15.6903 45.927 5.83295 53.0078L-1.35913 47.5674C20.4145 31.9272 42.1852 16.284 63.9591 0.642975C65.0972 -0.174759 67.1893 -0.174759 68.3274 0.642975C90.1066 16.2878 111.886 31.9317 133.665 47.5736C132.883 48.1351 127.241 52.441 126.459 53.0025C106.353 38.5621 86.2476 24.1225 66.1428 9.68208C69.9451 6.96012 66.7157 10.0932 64.0246 8.16066L66.1428 9.68208L66.0872 9.72198Z" fill="url(#paint14_linear_3394_242399)"/>
<path d="M133.678 58.4195C132.892 57.8549 127.245 53.5671 126.459 53.0025C127.241 52.441 132.883 48.1351 133.665 47.5736C134.957 48.5015 139.594 52.0649 140.886 52.9929C140.246 53.4528 138.767 54.5775 137.287 55.7029L137.285 55.7044L133.678 58.4195Z" fill="url(#paint15_linear_3394_242399)"/>
<path d="M66.1994 96.2859C68.6393 94.5327 71.0804 92.7817 73.5171 91.0296C81.3073 85.4363 89.0943 79.8408 96.8856 74.2464C106.743 67.1645 116.601 60.0835 126.459 53.0025C127.245 53.5671 132.892 57.8549 133.678 58.4195C111.895 74.0676 90.1111 89.7146 68.3274 105.363C67.1893 106.18 65.0972 106.18 63.9591 105.363C42.1691 89.7132 20.3821 74.0616 -1.4077 58.411L5.83295 53.0078C25.9361 67.4471 46.0387 81.8872 66.1429 96.3264C62.3425 99.0491 65.5701 95.9159 68.2606 97.8474L66.1429 96.3264L66.1994 96.2859Z" fill="url(#paint16_linear_3394_242399)"/>
<path d="M201.253 96.271C203.693 94.5178 206.134 92.7668 208.57 91.0146C216.361 85.4214 224.148 79.8259 231.939 74.2315C241.796 67.1496 251.654 60.0685 261.512 52.9876L268.722 58.4112C246.942 74.057 225.161 89.7019 203.381 105.348C202.243 106.166 200.15 106.166 199.012 105.348C177.233 89.7061 155.457 74.0624 133.678 58.4195C134.32 57.9589 135.802 56.8314 137.285 55.7044L137.287 55.7029L140.886 52.9929C160.989 67.4322 181.092 81.8723 201.196 96.3115C197.396 99.0342 200.623 95.901 203.314 97.8325L201.196 96.3115L201.253 96.271Z" fill="url(#paint17_linear_3394_242399)"/>
<path d="M201.14 9.70707C198.698 11.4603 196.26 13.2113 193.823 14.9634C186.032 20.56 178.245 26.1533 170.457 31.7487C160.599 38.8297 150.744 45.9121 140.886 52.9929C139.594 52.0649 134.957 48.5015 133.665 47.5736C155.448 31.9263 177.229 16.2762 199.012 0.628075C200.15 -0.189659 202.243 -0.189659 203.381 0.628075C225.163 16.275 246.945 31.9209 268.727 47.5648L261.512 52.9876L241.535 38.6398C228.089 28.9824 214.642 19.325 201.196 9.66719C204.998 6.94519 201.769 10.0783 199.078 8.14576L201.196 9.66719L201.14 9.70707Z" fill="url(#paint18_linear_3394_242399)"/>
<path fill-rule="evenodd" clip-rule="evenodd" d="M835.614 53.006L876.007 82.0235L916.403 52.9994L876.011 23.9819L835.614 53.006Z" fill="url(#paint19_linear_3394_242399)"/>
<path d="M943.703 30.2821C949.434 30.2821 954.096 25.6254 954.096 19.898C954.096 14.1717 949.434 9.51283 943.703 9.51283C937.971 9.51283 933.31 14.1706 933.31 19.898C933.308 25.6254 937.971 30.2821 943.703 30.2821ZM943.703 14.1248C946.89 14.1248 949.483 16.7143 949.483 19.898C949.483 23.0796 946.89 25.6701 943.703 25.6701C940.516 25.6701 937.925 23.0806 937.925 19.898C937.925 16.7143 940.516 14.1248 943.703 14.1248Z" fill="url(#paint20_linear_3394_242399)"/>
<path d="M943.701 96.4977C949.432 96.4977 954.094 91.8399 954.094 86.1125C954.094 80.3862 949.432 75.7262 943.701 75.7262C937.969 75.7262 933.308 80.3862 933.308 86.1125C933.307 91.8388 937.969 96.4977 943.701 96.4977ZM943.701 80.3382C946.888 80.3382 949.481 82.9288 949.481 86.1125C949.481 89.2962 946.888 91.8857 943.701 91.8857C940.514 91.8857 937.924 89.2962 937.924 86.1125C937.924 82.9277 940.514 80.3382 943.701 80.3382Z" fill="url(#paint21_linear_3394_242399)"/>
<path fill-rule="evenodd" clip-rule="evenodd" d="M700.558 52.9936L740.951 82.0111L781.347 52.987L740.955 23.9696L700.558 52.9936Z" fill="url(#paint22_linear_3394_242399)"/>
<path fill-rule="evenodd" clip-rule="evenodd" d="M565.502 53.006L605.895 82.0235L646.291 52.9994L605.899 23.9819L565.502 53.006Z" fill="url(#paint23_linear_3394_242399)"/>
<path fill-rule="evenodd" clip-rule="evenodd" d="M430.449 53.0029L470.842 82.0204L511.238 52.9964L470.846 23.9789L430.449 53.0029Z" fill="url(#paint24_linear_3394_242399)"/>
<path d="M403.903 96.4978C409.635 96.4978 414.299 91.84 414.299 86.1126C414.299 80.3863 409.635 75.7263 403.903 75.7263C398.172 75.7263 393.51 80.3863 393.51 86.1126C393.509 91.8389 398.172 96.4978 403.903 96.4978ZM403.903 80.3383C407.09 80.3383 409.683 82.9289 409.683 86.1126C409.683 89.2963 407.09 91.8858 403.903 91.8858C400.717 91.8858 398.126 89.2963 398.126 86.1126C398.126 82.9278 400.717 80.3383 403.903 80.3383Z" fill="url(#paint25_linear_3394_242399)"/>
<path fill-rule="evenodd" clip-rule="evenodd" d="M430.449 53.0029L470.842 82.0204L511.238 52.9964L470.846 23.9789L430.449 53.0029Z" fill="url(#paint26_linear_3394_242399)"/>
<path d="M403.903 96.4978C409.635 96.4978 414.299 91.84 414.299 86.1126C414.299 80.3863 409.635 75.7263 403.903 75.7263C398.172 75.7263 393.51 80.3863 393.51 86.1126C393.509 91.8389 398.172 96.4978 403.903 96.4978ZM403.903 80.3383C407.09 80.3383 409.683 82.9289 409.683 86.1126C409.683 89.2963 407.09 91.8858 403.903 91.8858C400.717 91.8858 398.126 89.2963 398.126 86.1126C398.126 82.9278 400.717 80.3383 403.903 80.3383Z" fill="url(#paint27_linear_3394_242399)"/>
<path d="M403.903 30.2811C409.634 30.2811 414.295 25.6244 414.295 19.897C414.295 14.1707 409.634 9.51184 403.903 9.51184C398.17 9.51184 393.509 14.1697 393.509 19.897C393.508 25.6244 398.17 30.2811 403.903 30.2811ZM403.903 14.1239C407.089 14.1239 409.683 16.7133 409.683 19.897C409.683 23.0786 407.089 25.6691 403.903 25.6691C400.715 25.6691 398.125 23.0797 398.125 19.897C398.125 16.7133 400.715 14.1239 403.903 14.1239Z" fill="url(#paint28_linear_3394_242399)"/>
<path d="M808.442 30.2821C814.173 30.2821 818.834 25.6254 818.834 19.898C818.834 14.1717 814.173 9.51283 808.442 9.51283C802.71 9.51283 798.048 14.1706 798.048 19.898C798.047 25.6254 802.71 30.2821 808.442 30.2821ZM808.442 14.1248C811.628 14.1248 814.222 16.7143 814.222 19.898C814.222 23.0796 811.628 25.6701 808.442 25.6701C805.254 25.6701 802.664 23.0806 802.664 19.898C802.664 16.7143 805.254 14.1248 808.442 14.1248Z" fill="url(#paint29_linear_3394_242399)"/>
<path d="M808.513 96.4917C814.244 96.4917 818.905 91.8339 818.905 86.1065C818.905 80.3802 814.244 75.7202 808.513 75.7202C802.78 75.7202 798.119 80.3802 798.119 86.1065C798.118 91.8328 802.78 96.4917 808.513 96.4917ZM808.513 80.3322C811.699 80.3322 814.293 82.9228 814.293 86.1065C814.293 89.2902 811.699 91.8797 808.513 91.8797C805.325 91.8797 802.735 89.2902 802.735 86.1065C802.735 82.9217 805.325 80.3322 808.513 80.3322Z" fill="url(#paint30_linear_3394_242399)"/>
<path d="M673.408 30.4594C679.139 30.4594 683.8 25.8027 683.8 20.0753C683.8 14.349 679.139 9.69011 673.408 9.69011C667.676 9.69011 663.014 14.3479 663.014 20.0753C663.013 25.8027 667.676 30.4594 673.408 30.4594ZM673.408 14.3021C676.594 14.3021 679.188 16.8916 679.188 20.0753C679.188 23.2568 676.594 25.8474 673.408 25.8474C670.22 25.8474 667.63 23.2579 667.63 20.0753C667.63 16.8916 670.22 14.3021 673.408 14.3021Z" fill="url(#paint31_linear_3394_242399)"/>
<path d="M673.408 96.4807C679.139 96.4807 683.8 91.8229 683.8 86.0955C683.8 80.3692 679.139 75.7092 673.408 75.7092C667.676 75.7092 663.014 80.3692 663.014 86.0955C663.013 91.8218 667.676 96.4807 673.408 96.4807ZM673.408 80.3212C676.594 80.3212 679.188 82.9118 679.188 86.0955C679.188 89.2792 676.594 91.8687 673.408 91.8687C670.22 91.8687 667.63 89.2792 667.63 86.0955C667.63 82.9107 670.22 80.3212 673.408 80.3212Z" fill="url(#paint32_linear_3394_242399)"/>
<path d="M808.455 58.4087L801.263 52.9683L808.504 47.5651L815.694 53.0032L808.455 58.4087Z" fill="url(#paint33_linear_3394_242399)"/>
<path d="M538.262 30.2785C543.993 30.2785 548.655 25.6218 548.655 19.8944C548.655 14.1681 543.993 9.5092 538.262 9.5092C532.53 9.5092 527.869 14.167 527.869 19.8944C527.868 25.6218 532.53 30.2785 538.262 30.2785ZM538.262 14.1212C541.449 14.1212 544.042 16.7107 544.042 19.8944C544.042 23.0759 541.449 25.6665 538.262 25.6665C535.075 25.6665 532.484 23.077 532.484 19.8944C532.484 16.7107 535.075 14.1212 538.262 14.1212Z" fill="url(#paint34_linear_3394_242399)"/>
<path d="M538.289 96.4693C544.02 96.4693 548.682 91.8115 548.682 86.0841C548.682 80.3578 544.02 75.6978 538.289 75.6978C532.557 75.6978 527.895 80.3578 527.895 86.0841C527.894 91.8104 532.557 96.4693 538.289 96.4693ZM538.289 80.3098C541.475 80.3098 544.069 82.9004 544.069 86.0841C544.069 89.2678 541.475 91.8573 538.289 91.8573C535.102 91.8573 532.511 89.2678 532.511 86.0841C532.511 82.8993 535.102 80.3098 538.289 80.3098Z" fill="url(#paint35_linear_3394_242399)"/>
<path d="M538.374 47.5649L545.584 52.9885L538.369 58.4112L531.157 52.9854L538.374 47.5649Z" fill="url(#paint36_linear_3394_242399)"/>
<path d="M741.009 96.2541C743.451 94.5009 745.889 92.7498 748.327 90.9977C756.117 85.4011 763.904 79.8079 771.692 74.2124C781.55 67.1315 791.406 60.049 801.263 52.9683L808.455 58.4087C786.681 74.0489 764.911 89.692 743.137 105.333C741.999 106.151 739.907 106.151 738.769 105.333C716.989 89.6882 695.21 74.0443 673.431 58.4025C674.213 57.841 679.855 53.535 680.637 52.9736C700.743 67.4139 720.848 81.8535 740.953 96.294C737.151 99.0159 740.38 95.8829 743.071 97.8154L740.953 96.294L741.009 96.2541Z" fill="url(#paint37_linear_3394_242399)"/>
<path d="M673.418 47.5565C674.204 48.1212 679.851 52.4089 680.637 52.9736C679.855 53.535 674.213 57.841 673.431 58.4025C672.139 57.4746 667.502 53.9111 666.21 52.9832C666.85 52.5232 668.329 51.3985 669.809 50.2732L669.811 50.2717L669.818 50.267L669.818 50.2663L669.82 50.2653L669.822 50.2633L673.418 47.5565Z" fill="url(#paint38_linear_3394_242399)"/>
<path d="M605.956 96.269C608.398 94.5158 610.836 92.7647 613.273 91.0126C621.064 85.4161 628.851 79.8228 636.639 74.2273C646.497 67.1464 656.352 60.0639 666.21 52.9832C667.502 53.9111 672.139 57.4746 673.431 58.4025C651.648 74.0497 629.867 89.6999 608.084 105.348C606.946 106.166 604.853 106.166 603.715 105.348C581.933 89.701 560.151 74.0551 538.369 58.4112L545.584 52.9885L565.561 67.3362C579.007 76.9937 592.454 86.6511 605.9 96.3089C602.098 99.0309 605.327 95.8978 608.018 97.8303L605.9 96.3089L605.956 96.269Z" fill="url(#paint39_linear_3394_242399)"/>
<path d="M336.193 9.70488C333.751 11.4581 331.313 13.2091 328.875 14.9613C321.085 20.5578 313.298 26.1511 305.51 31.7466C295.652 38.8275 285.796 45.91 275.939 52.9907L268.727 47.5648C290.507 31.9197 312.284 16.2718 334.065 0.625893C335.203 -0.191841 337.295 -0.191841 338.433 0.625893C360.147 16.2235 381.816 31.8224 403.53 47.417L396.565 52.9854L375.874 38.1249C362.665 28.6383 349.457 19.1518 336.249 9.66499C340.051 6.94301 336.822 10.0761 334.131 8.14357L336.249 9.66499L336.193 9.70488Z" fill="url(#paint40_linear_3394_242399)"/>
<path d="M336.305 96.2688C338.745 94.5156 341.186 92.7646 343.623 91.0125C351.413 85.4192 359.2 79.8237 366.991 74.2293C376.849 67.1475 386.707 60.0664 396.565 52.9854L403.523 58.5613C381.812 74.1571 360.144 89.7498 338.433 105.346C337.295 106.163 335.203 106.163 334.065 105.346C312.283 89.7019 290.504 74.0561 268.722 58.4112L275.939 52.9907C296.042 67.43 316.145 81.8701 336.249 96.3093C332.448 99.032 335.676 95.8988 338.367 97.8304L336.249 96.3093L336.305 96.2688Z" fill="url(#paint41_linear_3394_242399)"/>
<path d="M376.647 52.9731L336.254 23.9556L295.858 52.9797L336.25 81.9972L376.647 52.9731Z" fill="url(#paint42_linear_3394_242399)"/>
<path d="M470.903 96.2712C473.345 94.518 475.783 92.7669 478.221 91.0148C486.011 85.4182 493.798 79.825 501.586 74.2295C511.444 67.1486 521.3 60.0661 531.157 52.9854L538.369 58.4112C516.589 74.0563 494.812 89.7042 473.031 105.35C471.893 106.168 469.801 106.168 468.663 105.35C446.949 89.7525 425.236 74.1559 403.523 58.5613L410.531 52.9907L431.091 67.7573C444.344 77.2752 457.596 86.7929 470.847 96.3111C467.045 99.033 470.274 95.9 472.965 97.8325L470.847 96.3111L470.903 96.2712Z" fill="url(#paint43_linear_3394_242399)"/>
<path d="M403.523 58.5613L396.565 52.9854L403.53 47.417L410.531 52.9907L403.523 58.5613Z" fill="url(#paint44_linear_3394_242399)"/>
<path d="M470.791 9.70721C468.351 11.4604 465.91 13.2115 463.473 14.9636C455.683 20.5569 447.896 26.1523 440.104 31.7467C430.247 38.8286 420.389 45.9097 410.531 52.9907L403.53 47.417C425.241 31.8212 446.952 16.2263 468.663 0.630386C469.801 -0.18734 471.893 -0.18734 473.031 0.630386C494.813 16.2742 516.592 31.92 538.374 47.5649L531.157 52.9854L508.585 36.7725C496.006 27.7371 483.427 18.7018 470.847 9.6667C474.648 6.94408 471.42 10.0772 468.729 8.14577L470.847 9.6667L470.791 9.70721Z" fill="url(#paint45_linear_3394_242399)"/>
<path d="M-134.422 56.7118V49.2443L-129.224 52.9781L-134.422 56.7118Z" fill="url(#paint46_linear_3394_242399)"/>
<path d="M-68.9137 96.2968C-72.714 99.0194 -69.4865 95.8862 -66.7959 97.8178L-68.9137 96.2968Z" fill="url(#paint47_linear_3394_242399)"/>
<path d="M876.01 9.67928C879.81 6.95663 876.582 10.0899 873.892 8.15827L876.01 9.67928Z" fill="url(#paint48_linear_3394_242399)"/>
<path d="M740.897 9.69011C738.457 11.4433 736.016 13.1944 733.579 14.9465C725.789 20.5398 718.002 26.1352 710.21 31.7296C700.353 38.8115 690.495 45.8926 680.637 52.9736C679.851 52.4089 674.204 48.1212 673.418 47.5565C695.201 31.9085 716.985 16.2614 738.769 0.613297C739.907 -0.204437 741.999 -0.204437 743.137 0.613297C764.927 16.2628 786.714 31.9144 808.504 47.5651L801.263 52.9683L778.645 36.7224L777.463 35.8731C765.293 27.1319 753.123 18.3906 740.953 9.6496C744.753 6.92696 741.526 10.0602 738.835 8.1286L740.953 9.6496L740.897 9.69011Z" fill="url(#paint49_linear_3394_242399)"/>
<path d="M740.953 9.6496C744.753 6.92696 741.526 10.0602 738.835 8.1286L740.953 9.6496Z" fill="url(#paint50_linear_3394_242399)"/>
<path fill-rule="evenodd" clip-rule="evenodd" d="M605.9 9.66451C618.05 18.3908 630.199 27.1174 642.348 35.844L643.465 36.646C630.943 27.6521 618.422 18.6581 605.9 9.66451ZM669.818 50.267L669.818 50.2663L669.82 50.2653L669.818 50.267Z" fill="url(#paint51_linear_3394_242399)"/>
<path d="M605.9 9.66451C609.7 6.94186 606.473 10.0751 603.782 8.1435L605.9 9.66451Z" fill="url(#paint52_linear_3394_242399)"/>
<path d="M605.843 9.70502C603.403 11.4582 600.962 13.2093 598.526 14.9614C590.735 20.5547 582.948 26.1501 575.157 31.7445C565.3 38.8264 555.442 45.9075 545.584 52.9885L538.374 47.5649C560.154 31.919 581.935 16.2741 603.715 0.628212C604.853 -0.189522 606.946 -0.189522 608.084 0.628212C629.863 16.2699 651.639 31.9137 673.418 47.5565C672.778 48.016 671.301 49.1391 669.822 50.2633L669.82 50.2653L669.818 50.2663L669.818 50.267L669.811 50.2717L669.809 50.2732L666.21 52.9832L643.465 36.646L642.348 35.844C630.199 27.1174 618.05 18.3908 605.9 9.66451C609.7 6.94186 606.473 10.0751 603.782 8.1435L605.9 9.66451L605.843 9.70502Z" fill="url(#paint53_linear_3394_242399)"/>
<path d="M470.847 9.6667C474.648 6.94408 471.42 10.0772 468.729 8.14577L470.847 9.6667Z" fill="url(#paint54_linear_3394_242399)"/>
<path d="M336.249 96.3093C332.448 99.032 335.676 95.8988 338.367 97.8304L336.249 96.3093Z" fill="url(#paint55_linear_3394_242399)"/>
<path d="M201.196 96.3115C197.396 99.0342 200.623 95.901 203.314 97.8325L201.196 96.3115Z" fill="url(#paint56_linear_3394_242399)"/>
<path d="M66.1429 96.3264C62.3425 99.0491 65.5701 95.9159 68.2606 97.8474L66.1429 96.3264Z" fill="url(#paint57_linear_3394_242399)"/>
<path fill-rule="evenodd" clip-rule="evenodd" d="M1375.52 53.0299L1415.91 82.0474L1456.31 53.0234L1415.92 24.0059L1375.52 53.0299Z" fill="url(#paint58_linear_3394_242399)"/>
<path d="M1483.61 30.3061C1489.34 30.3061 1494 25.6494 1494 19.922C1494 14.1957 1489.34 9.53678 1483.61 9.53678C1477.88 9.53678 1473.21 14.1946 1473.21 19.922C1473.21 25.6494 1477.88 30.3061 1483.61 30.3061ZM1483.61 14.1488C1486.79 14.1488 1489.39 16.7383 1489.39 19.922C1489.39 23.1035 1486.79 25.6941 1483.61 25.6941C1480.42 25.6941 1477.83 23.1046 1477.83 19.922C1477.83 16.7383 1480.42 14.1488 1483.61 14.1488Z" fill="url(#paint59_linear_3394_242399)"/>
<path d="M1483.61 96.5216C1489.34 96.5216 1494 91.8638 1494 86.1365C1494 80.4102 1489.34 75.7502 1483.61 75.7502C1477.87 75.7502 1473.21 80.4102 1473.21 86.1365C1473.21 91.8628 1477.87 96.5216 1483.61 96.5216ZM1483.61 80.3622C1486.79 80.3622 1489.39 82.9527 1489.39 86.1365C1489.39 89.3202 1486.79 91.9096 1483.61 91.9096C1480.42 91.9096 1477.83 89.3202 1477.83 86.1365C1477.83 82.9517 1480.42 80.3622 1483.61 80.3622Z" fill="url(#paint60_linear_3394_242399)"/>
<path fill-rule="evenodd" clip-rule="evenodd" d="M1240.46 53.0175L1280.85 82.035L1321.25 53.011L1280.86 23.9935L1240.46 53.0175Z" fill="url(#paint61_linear_3394_242399)"/>
<path fill-rule="evenodd" clip-rule="evenodd" d="M1105.41 53.0299L1145.8 82.0474L1186.19 53.0234L1145.8 24.0059L1105.41 53.0299Z" fill="url(#paint62_linear_3394_242399)"/>
<path fill-rule="evenodd" clip-rule="evenodd" d="M970.353 53.0269L1010.75 82.0444L1051.14 53.0203L1010.75 24.0028L970.353 53.0269Z" fill="url(#paint63_linear_3394_242399)"/>
<path fill-rule="evenodd" clip-rule="evenodd" d="M970.353 53.0269L1010.75 82.0444L1051.14 53.0203L1010.75 24.0028L970.353 53.0269Z" fill="url(#paint64_linear_3394_242399)"/>
<path d="M1348.35 30.3061C1354.08 30.3061 1358.74 25.6494 1358.74 19.922C1358.74 14.1957 1354.08 9.53678 1348.35 9.53678C1342.61 9.53678 1337.95 14.1946 1337.95 19.922C1337.95 25.6494 1342.61 30.3061 1348.35 30.3061ZM1348.35 14.1488C1351.53 14.1488 1354.13 16.7383 1354.13 19.922C1354.13 23.1035 1351.53 25.6941 1348.35 25.6941C1345.16 25.6941 1342.57 23.1046 1342.57 19.922C1342.57 16.7383 1345.16 14.1488 1348.35 14.1488Z" fill="url(#paint65_linear_3394_242399)"/>
<path d="M1348.42 96.5156C1354.15 96.5156 1358.81 91.8578 1358.81 86.1304C1358.81 80.4041 1354.15 75.7442 1348.42 75.7442C1342.68 75.7442 1338.02 80.4041 1338.02 86.1304C1338.02 91.8567 1342.68 96.5156 1348.42 96.5156ZM1348.42 80.3562C1351.6 80.3562 1354.2 82.9467 1354.2 86.1304C1354.2 89.3141 1351.6 91.9036 1348.42 91.9036C1345.23 91.9036 1342.64 89.3141 1342.64 86.1304C1342.64 82.9457 1345.23 80.3562 1348.42 80.3562Z" fill="url(#paint66_linear_3394_242399)"/>
<path d="M1213.31 30.4834C1219.04 30.4834 1223.7 25.8267 1223.7 20.0993C1223.7 14.373 1219.04 9.71406 1213.31 9.71406C1207.58 9.71406 1202.92 14.3719 1202.92 20.0993C1202.92 25.8267 1207.58 30.4834 1213.31 30.4834ZM1213.31 14.3261C1216.5 14.3261 1219.09 16.9156 1219.09 20.0993C1219.09 23.2808 1216.5 25.8713 1213.31 25.8713C1210.12 25.8713 1207.53 23.2819 1207.53 20.0993C1207.53 16.9156 1210.12 14.3261 1213.31 14.3261Z" fill="url(#paint67_linear_3394_242399)"/>
<path d="M1213.31 96.5047C1219.04 96.5047 1223.7 91.8468 1223.7 86.1195C1223.7 80.3932 1219.04 75.7332 1213.31 75.7332C1207.58 75.7332 1202.92 80.3932 1202.92 86.1195C1202.92 91.8458 1207.58 96.5047 1213.31 96.5047ZM1213.31 80.3452C1216.5 80.3452 1219.09 82.9358 1219.09 86.1195C1219.09 89.3032 1216.5 91.8926 1213.31 91.8926C1210.12 91.8926 1207.53 89.3032 1207.53 86.1195C1207.53 82.9347 1210.12 80.3452 1213.31 80.3452Z" fill="url(#paint68_linear_3394_242399)"/>
<path d="M1348.36 58.4326L1341.17 52.9922L1348.41 47.589L1355.6 53.0272L1348.36 58.4326Z" fill="url(#paint69_linear_3394_242399)"/>
<path d="M1415.91 96.3476C1412.11 99.0696 1415.34 95.9365 1418.03 97.869C1417.33 97.3619 1416.62 96.8547 1415.91 96.3476C1415.93 96.3344 1415.95 96.3211 1415.97 96.3077C1418.41 94.5545 1420.85 92.8035 1423.29 91.0513C1431.08 85.4548 1438.86 79.8615 1446.65 74.266C1456.51 67.1851 1466.37 60.1026 1476.22 53.0219C1477.96 54.2665 1479.69 55.5111 1481.42 56.7557V49.2882C1479.69 50.5327 1477.96 51.7773 1476.22 53.0219C1456.12 38.5826 1436.02 24.1425 1415.91 9.70324C1419.71 6.98058 1416.49 10.1138 1413.8 8.18223C1414.5 8.68923 1415.21 9.19623 1415.91 9.70324C1415.9 9.7166 1415.88 9.7301 1415.86 9.74374C1413.42 11.497 1410.98 13.248 1408.54 15.0001C1400.75 20.5934 1392.96 26.1889 1385.17 31.7832C1375.31 38.8651 1365.46 45.9462 1355.6 53.0272L1348.41 47.589C1370.18 31.948 1391.96 16.308 1413.73 0.666924C1414.87 -0.150803 1416.96 -0.150803 1418.1 0.666924C1440.66 16.8733 1463.22 33.0818 1485.79 49.2892C1488.56 51.2769 1488.56 54.768 1485.79 56.7568C1463.22 72.9653 1440.66 89.1771 1418.1 105.387C1416.96 106.204 1414.87 106.204 1413.73 105.387C1391.94 89.734 1370.15 74.0823 1348.36 58.4326L1355.6 53.0272C1375.7 67.4675 1395.81 81.9072 1415.91 96.3476Z" fill="url(#paint70_linear_3394_242399)"/>
<path d="M1078.17 30.3024C1083.9 30.3024 1088.56 25.6457 1088.56 19.9184C1088.56 14.192 1083.9 9.53316 1078.17 9.53316C1072.43 9.53316 1067.77 14.191 1067.77 19.9184C1067.77 25.6457 1072.43 30.3024 1078.17 30.3024ZM1078.17 14.1452C1081.35 14.1452 1083.95 16.7346 1083.95 19.9184C1083.95 23.0999 1081.35 25.6904 1078.17 25.6904C1074.98 25.6904 1072.39 23.101 1072.39 19.9184C1072.39 16.7346 1074.98 14.1452 1078.17 14.1452Z" fill="url(#paint71_linear_3394_242399)"/>
<path d="M1078.19 96.4933C1083.92 96.4933 1088.59 91.8355 1088.59 86.1081C1088.59 80.3818 1083.92 75.7218 1078.19 75.7218C1072.46 75.7218 1067.8 80.3818 1067.8 86.1081C1067.8 91.8344 1072.46 96.4933 1078.19 96.4933ZM1078.19 80.3338C1081.38 80.3338 1083.97 82.9244 1083.97 86.1081C1083.97 89.2918 1081.38 91.8813 1078.19 91.8813C1075.01 91.8813 1072.42 89.2918 1072.42 86.1081C1072.42 82.9233 1075.01 80.3338 1078.19 80.3338Z" fill="url(#paint72_linear_3394_242399)"/>
<path d="M1078.28 47.5888L1085.49 53.0124L1078.27 58.4352L1071.06 53.0093L1078.28 47.5888Z" fill="url(#paint73_linear_3394_242399)"/>
<path d="M1280.91 96.278C1283.35 94.5248 1285.79 92.7738 1288.23 91.0217C1296.02 85.4251 1303.81 79.8318 1311.6 74.2363C1321.45 67.1554 1331.31 60.0729 1341.17 52.9922L1348.36 58.4326C1326.59 74.0728 1304.81 89.716 1283.04 105.357C1281.9 106.175 1279.81 106.175 1278.67 105.357C1256.89 89.7122 1235.11 74.0683 1213.34 58.4264C1214.12 57.8649 1219.76 53.559 1220.54 52.9975C1240.65 67.4379 1260.75 81.8775 1280.86 96.3179C1277.05 99.0399 1280.28 95.9068 1282.98 97.8393L1280.86 96.3179L1280.91 96.278Z" fill="url(#paint74_linear_3394_242399)"/>
<path d="M1213.32 47.5805C1214.11 48.1451 1219.75 52.4329 1220.54 52.9975C1219.76 53.559 1214.12 57.8649 1213.34 58.4264C1212.04 57.4985 1207.41 53.9351 1206.11 53.0071C1206.75 52.5472 1208.23 51.4225 1209.71 50.2971L1209.72 50.2956L1209.72 50.291L1209.72 50.2903L1209.72 50.2893L1209.73 50.2873L1213.32 47.5805Z" fill="url(#paint75_linear_3394_242399)"/>
<path d="M1145.86 96.2929C1148.3 94.5397 1150.74 92.7887 1153.18 91.0366C1160.97 85.44 1168.75 79.8467 1176.54 74.2513C1186.4 67.1703 1196.26 60.0879 1206.11 53.0071C1207.41 53.9351 1212.04 57.4985 1213.34 58.4264C1191.55 74.0737 1169.77 89.7238 1147.99 105.372C1146.85 106.19 1144.76 106.19 1143.62 105.372C1121.84 89.725 1100.06 74.0791 1078.27 58.4352L1085.49 53.0124L1105.46 67.3601C1118.91 77.0176 1132.36 86.675 1145.8 96.3328C1142 99.0548 1145.23 95.9217 1147.92 97.8542L1145.8 96.3328L1145.86 96.2929Z" fill="url(#paint76_linear_3394_242399)"/>
<path d="M1010.81 96.2951C1013.25 94.5419 1015.69 92.7909 1018.12 91.0387C1025.91 85.4422 1033.7 79.8489 1041.49 74.2534C1051.35 67.1725 1061.2 60.09 1071.06 53.0093L1078.27 58.4352C1056.49 74.0802 1034.72 89.7282 1012.93 105.374C1011.8 106.192 1009.7 106.192 1008.57 105.374C986.853 89.7765 965.14 74.1799 943.427 58.5852L944.548 57.6942L950.435 53.0146L970.995 67.7813C984.248 77.2991 997.5 86.8169 1010.75 96.335C1006.95 99.057 1010.18 95.9239 1012.87 97.8564L1010.75 96.335L1010.81 96.2951Z" fill="url(#paint77_linear_3394_242399)"/>
<path d="M1010.69 9.73116C1008.25 11.4844 1005.81 13.2354 1003.38 14.9875C995.587 20.5808 987.8 26.1763 980.009 31.7707C970.151 38.8525 960.293 45.9336 950.435 53.0146L944.244 48.0855L943.434 47.4409C965.145 31.8451 986.856 16.2502 1008.57 0.654343C1009.7 -0.163391 1011.8 -0.163391 1012.93 0.654343C1034.72 16.2981 1056.5 31.9439 1078.28 47.5888L1071.06 53.0093L1048.49 36.7964C1035.91 27.7611 1023.33 18.7257 1010.75 9.69065C1014.55 6.96803 1011.32 10.1012 1008.63 8.16972L1010.75 9.69065L1010.69 9.73116Z" fill="url(#paint78_linear_3394_242399)"/>
<path d="M1481.42 49.2882V56.7557L1476.22 53.0219L1481.42 49.2882Z" fill="url(#paint79_linear_3394_242399)"/>
<path d="M1415.91 9.70324C1419.71 6.98058 1416.49 10.1138 1413.8 8.18223L1415.91 9.70324Z" fill="url(#paint80_linear_3394_242399)"/>
<path d="M1280.8 9.71406C1278.36 11.4673 1275.92 13.2183 1273.48 14.9704C1265.69 20.5637 1257.91 26.1592 1250.11 31.7536C1240.26 38.8354 1230.4 45.9165 1220.54 52.9975C1219.75 52.4329 1214.11 48.1451 1213.32 47.5805C1235.11 31.9324 1256.89 16.2853 1278.67 0.637245C1279.81 -0.180481 1281.9 -0.180481 1283.04 0.637245C1304.83 16.2868 1326.62 31.9384 1348.41 47.589L1341.17 52.9922L1318.55 36.7464L1317.37 35.8971C1305.2 27.1559 1293.03 18.4146 1280.86 9.67356C1284.66 6.9509 1281.43 10.0841 1278.74 8.15256L1280.86 9.67356L1280.8 9.71406Z" fill="url(#paint81_linear_3394_242399)"/>
<path d="M1280.86 9.67356C1284.66 6.9509 1281.43 10.0841 1278.74 8.15256L1280.86 9.67356Z" fill="url(#paint82_linear_3394_242399)"/>
<path fill-rule="evenodd" clip-rule="evenodd" d="M1145.8 9.68846C1157.95 18.4148 1170.1 27.1414 1182.25 35.868L1183.37 36.67C1170.85 27.6761 1158.33 18.6821 1145.8 9.68846ZM1209.72 50.291L1209.72 50.2903L1209.72 50.2893L1209.72 50.291Z" fill="url(#paint83_linear_3394_242399)"/>
<path d="M1145.8 9.68846C1149.6 6.96581 1146.38 10.099 1143.69 8.16745L1145.8 9.68846Z" fill="url(#paint84_linear_3394_242399)"/>
<path d="M1145.75 9.72897C1143.31 11.4822 1140.87 13.2332 1138.43 14.9853C1130.64 20.5786 1122.85 26.1741 1115.06 31.7685C1105.2 38.8503 1095.35 45.9314 1085.49 53.0124L1078.28 47.5888C1100.06 31.943 1121.84 16.2981 1143.62 0.652161C1144.76 -0.165573 1146.85 -0.165573 1147.99 0.652161C1169.77 16.2939 1191.54 31.9376 1213.32 47.5805C1212.68 48.04 1211.2 49.163 1209.73 50.2873L1209.72 50.2893L1209.72 50.2903L1209.72 50.291L1209.72 50.2956L1209.71 50.2971L1206.11 53.0071L1183.37 36.67L1182.25 35.868C1170.1 27.1414 1157.95 18.4148 1145.8 9.68846C1149.6 6.96581 1146.38 10.099 1143.69 8.16745L1145.8 9.68846L1145.75 9.72897Z" fill="url(#paint85_linear_3394_242399)"/>
<path d="M1010.75 9.69065C1014.55 6.96803 1011.32 10.1012 1008.63 8.16972L1010.75 9.69065Z" fill="url(#paint86_linear_3394_242399)"/>
<path d="M943.392 47.4738C943.676 47.6777 943.96 47.8816 944.244 48.0855L950.435 53.0146L944.548 57.6942C944.155 57.9762 943.762 58.2583 943.37 58.5404L939.873 55.7915C939.871 55.7903 939.87 55.789 939.868 55.7877C938.526 54.7034 937.185 53.6195 936.32 52.998C937.186 52.3759 938.53 51.2984 939.875 50.2207L939.88 50.2169L943.392 47.4738Z" fill="url(#paint87_linear_3394_242399)"/>
<path d="M876.065 96.2838C878.507 94.5305 880.945 92.7795 883.383 91.0274L892.914 84.1808C897.526 80.8679 902.137 77.5554 906.748 74.2421C916.606 67.1612 926.462 60.0787 936.32 52.998L939.868 55.7877L939.873 55.7915C941.186 56.8524 942.5 57.9139 943.367 58.5422C921.642 74.1479 899.919 89.7563 878.193 105.363C877.055 106.18 874.963 106.18 873.825 105.363C852.035 89.71 830.245 74.0583 808.455 58.4087L815.694 53.0032L835.292 67.079C848.865 76.8272 862.437 86.5752 876.01 96.3237C872.207 99.0456 875.437 95.9126 878.128 97.8451L876.01 96.3237L876.065 96.2838Z" fill="url(#paint88_linear_3394_242399)"/>
<path d="M875.953 9.7198C873.513 11.473 871.072 13.224 868.635 14.9762C860.845 20.5695 853.058 26.1649 845.267 31.7593C835.41 38.8412 825.552 45.9223 815.694 53.0032L808.504 47.5651L839.908 25.0063C851.214 16.8853 862.519 8.76427 873.825 0.642975C874.963 -0.174759 877.055 -0.174759 878.193 0.642975C899.927 16.2518 921.657 31.8626 943.39 47.4725C942.523 48.0987 941.202 49.1576 939.88 50.2169L939.875 50.2207L936.32 52.998L914.702 37.4702C901.805 28.2065 888.907 18.9427 876.01 9.67928C879.81 6.95663 876.582 10.0899 873.892 8.15827L876.01 9.67928L875.953 9.7198Z" fill="url(#paint89_linear_3394_242399)"/>
<defs>
<linearGradient id="paint0_linear_3394_242399" x1="-147" y1="53" x2="1494" y2="53" gradientUnits="userSpaceOnUse">
<stop offset="0.216002" stop-color="#DFF6E7" stop-opacity="0"/>
<stop offset="0.855923" stop-color="#DFF6E7"/>
</linearGradient>
<linearGradient id="paint1_linear_3394_242399" x1="-147" y1="53" x2="1494" y2="53" gradientUnits="userSpaceOnUse">
<stop offset="0.216002" stop-color="#DFF6E7" stop-opacity="0"/>
<stop offset="0.855923" stop-color="#DFF6E7"/>
</linearGradient>
<linearGradient id="paint2_linear_3394_242399" x1="-147" y1="53" x2="1494" y2="53" gradientUnits="userSpaceOnUse">
<stop offset="0.216002" stop-color="#DFF6E7" stop-opacity="0"/>
<stop offset="0.855923" stop-color="#DFF6E7"/>
</linearGradient>
<linearGradient id="paint3_linear_3394_242399" x1="-147" y1="53" x2="1494" y2="53" gradientUnits="userSpaceOnUse">
<stop offset="0.216002" stop-color="#DFF6E7" stop-opacity="0"/>
<stop offset="0.855923" stop-color="#DFF6E7"/>
</linearGradient>
<linearGradient id="paint4_linear_3394_242399" x1="-147" y1="53" x2="1494" y2="53" gradientUnits="userSpaceOnUse">
<stop offset="0.216002" stop-color="#DFF6E7" stop-opacity="0"/>
<stop offset="0.855923" stop-color="#DFF6E7"/>
</linearGradient>
<linearGradient id="paint5_linear_3394_242399" x1="-147" y1="53" x2="1494" y2="53" gradientUnits="userSpaceOnUse">
<stop offset="0.216002" stop-color="#DFF6E7" stop-opacity="0"/>
<stop offset="0.855923" stop-color="#DFF6E7"/>
</linearGradient>
<linearGradient id="paint6_linear_3394_242399" x1="-147" y1="53" x2="1494" y2="53" gradientUnits="userSpaceOnUse">
<stop offset="0.216002" stop-color="#DFF6E7" stop-opacity="0"/>
<stop offset="0.855923" stop-color="#DFF6E7"/>
</linearGradient>
<linearGradient id="paint7_linear_3394_242399" x1="-147" y1="53" x2="1494" y2="53" gradientUnits="userSpaceOnUse">
<stop offset="0.216002" stop-color="#DFF6E7" stop-opacity="0"/>
<stop offset="0.855923" stop-color="#DFF6E7"/>
</linearGradient>
<linearGradient id="paint8_linear_3394_242399" x1="-147" y1="53" x2="1494" y2="53" gradientUnits="userSpaceOnUse">
<stop offset="0.216002" stop-color="#DFF6E7" stop-opacity="0"/>
<stop offset="0.855923" stop-color="#DFF6E7"/>
</linearGradient>
<linearGradient id="paint9_linear_3394_242399" x1="-147" y1="53" x2="1494" y2="53" gradientUnits="userSpaceOnUse">
<stop offset="0.216002" stop-color="#DFF6E7" stop-opacity="0"/>
<stop offset="0.855923" stop-color="#DFF6E7"/>
</linearGradient>
<linearGradient id="paint10_linear_3394_242399" x1="-147" y1="53" x2="1494" y2="53" gradientUnits="userSpaceOnUse">
<stop offset="0.216002" stop-color="#DFF6E7" stop-opacity="0"/>
<stop offset="0.855923" stop-color="#DFF6E7"/>
</linearGradient>
<linearGradient id="paint11_linear_3394_242399" x1="-147" y1="53" x2="1494" y2="53" gradientUnits="userSpaceOnUse">
<stop offset="0.216002" stop-color="#DFF6E7" stop-opacity="0"/>
<stop offset="0.855923" stop-color="#DFF6E7"/>
</linearGradient>
<linearGradient id="paint12_linear_3394_242399" x1="-147" y1="53" x2="1494" y2="53" gradientUnits="userSpaceOnUse">
<stop offset="0.216002" stop-color="#DFF6E7" stop-opacity="0"/>
<stop offset="0.855923" stop-color="#DFF6E7"/>
</linearGradient>
<linearGradient id="paint13_linear_3394_242399" x1="-147" y1="53" x2="1494" y2="53" gradientUnits="userSpaceOnUse">
<stop offset="0.216002" stop-color="#DFF6E7" stop-opacity="0"/>
<stop offset="0.855923" stop-color="#DFF6E7"/>
</linearGradient>
<linearGradient id="paint14_linear_3394_242399" x1="-147" y1="53" x2="1494" y2="53" gradientUnits="userSpaceOnUse">
<stop offset="0.216002" stop-color="#DFF6E7" stop-opacity="0"/>
<stop offset="0.855923" stop-color="#DFF6E7"/>
</linearGradient>
<linearGradient id="paint15_linear_3394_242399" x1="-147" y1="53" x2="1494" y2="53" gradientUnits="userSpaceOnUse">
<stop offset="0.216002" stop-color="#DFF6E7" stop-opacity="0"/>
<stop offset="0.855923" stop-color="#DFF6E7"/>
</linearGradient>
<linearGradient id="paint16_linear_3394_242399" x1="-147" y1="53" x2="1494" y2="53" gradientUnits="userSpaceOnUse">
<stop offset="0.216002" stop-color="#DFF6E7" stop-opacity="0"/>
<stop offset="0.855923" stop-color="#DFF6E7"/>
</linearGradient>
<linearGradient id="paint17_linear_3394_242399" x1="-147" y1="53" x2="1494" y2="53" gradientUnits="userSpaceOnUse">
<stop offset="0.216002" stop-color="#DFF6E7" stop-opacity="0"/>
<stop offset="0.855923" stop-color="#DFF6E7"/>
</linearGradient>
<linearGradient id="paint18_linear_3394_242399" x1="-147" y1="53" x2="1494" y2="53" gradientUnits="userSpaceOnUse">
<stop offset="0.216002" stop-color="#DFF6E7" stop-opacity="0"/>
<stop offset="0.855923" stop-color="#DFF6E7"/>
</linearGradient>
<linearGradient id="paint19_linear_3394_242399" x1="-147" y1="53" x2="1494" y2="53" gradientUnits="userSpaceOnUse">
<stop offset="0.216002" stop-color="#DFF6E7" stop-opacity="0"/>
<stop offset="0.855923" stop-color="#DFF6E7"/>
</linearGradient>
<linearGradient id="paint20_linear_3394_242399" x1="-147" y1="53" x2="1494" y2="53" gradientUnits="userSpaceOnUse">
<stop offset="0.216002" stop-color="#DFF6E7" stop-opacity="0"/>
<stop offset="0.855923" stop-color="#DFF6E7"/>
</linearGradient>
<linearGradient id="paint21_linear_3394_242399" x1="-147" y1="53" x2="1494" y2="53" gradientUnits="userSpaceOnUse">
<stop offset="0.216002" stop-color="#DFF6E7" stop-opacity="0"/>
<stop offset="0.855923" stop-color="#DFF6E7"/>
</linearGradient>
<linearGradient id="paint22_linear_3394_242399" x1="-147" y1="53" x2="1494" y2="53" gradientUnits="userSpaceOnUse">
<stop offset="0.216002" stop-color="#DFF6E7" stop-opacity="0"/>
<stop offset="0.855923" stop-color="#DFF6E7"/>
</linearGradient>
<linearGradient id="paint23_linear_3394_242399" x1="-147" y1="53" x2="1494" y2="53" gradientUnits="userSpaceOnUse">
<stop offset="0.216002" stop-color="#DFF6E7" stop-opacity="0"/>
<stop offset="0.855923" stop-color="#DFF6E7"/>
</linearGradient>
<linearGradient id="paint24_linear_3394_242399" x1="-147" y1="53" x2="1494" y2="53" gradientUnits="userSpaceOnUse">
<stop offset="0.216002" stop-color="#DFF6E7" stop-opacity="0"/>
<stop offset="0.855923" stop-color="#DFF6E7"/>
</linearGradient>
<linearGradient id="paint25_linear_3394_242399" x1="-147" y1="53" x2="1494" y2="53" gradientUnits="userSpaceOnUse">
<stop offset="0.216002" stop-color="#DFF6E7" stop-opacity="0"/>
<stop offset="0.855923" stop-color="#DFF6E7"/>
</linearGradient>
<linearGradient id="paint26_linear_3394_242399" x1="-147" y1="53" x2="1494" y2="53" gradientUnits="userSpaceOnUse">
<stop offset="0.216002" stop-color="#DFF6E7" stop-opacity="0"/>
<stop offset="0.855923" stop-color="#DFF6E7"/>
</linearGradient>
<linearGradient id="paint27_linear_3394_242399" x1="-147" y1="53" x2="1494" y2="53" gradientUnits="userSpaceOnUse">
<stop offset="0.216002" stop-color="#DFF6E7" stop-opacity="0"/>
<stop offset="0.855923" stop-color="#DFF6E7"/>
</linearGradient>
<linearGradient id="paint28_linear_3394_242399" x1="-147" y1="53" x2="1494" y2="53" gradientUnits="userSpaceOnUse">
<stop offset="0.216002" stop-color="#DFF6E7" stop-opacity="0"/>
<stop offset="0.855923" stop-color="#DFF6E7"/>
</linearGradient>
<linearGradient id="paint29_linear_3394_242399" x1="-147" y1="53" x2="1494" y2="53" gradientUnits="userSpaceOnUse">
<stop offset="0.216002" stop-color="#DFF6E7" stop-opacity="0"/>
<stop offset="0.855923" stop-color="#DFF6E7"/>
</linearGradient>
<linearGradient id="paint30_linear_3394_242399" x1="-147" y1="53" x2="1494" y2="53" gradientUnits="userSpaceOnUse">
<stop offset="0.216002" stop-color="#DFF6E7" stop-opacity="0"/>
<stop offset="0.855923" stop-color="#DFF6E7"/>
</linearGradient>
<linearGradient id="paint31_linear_3394_242399" x1="-147" y1="53" x2="1494" y2="53" gradientUnits="userSpaceOnUse">
<stop offset="0.216002" stop-color="#DFF6E7" stop-opacity="0"/>
<stop offset="0.855923" stop-color="#DFF6E7"/>
</linearGradient>
<linearGradient id="paint32_linear_3394_242399" x1="-147" y1="53" x2="1494" y2="53" gradientUnits="userSpaceOnUse">
<stop offset="0.216002" stop-color="#DFF6E7" stop-opacity="0"/>
<stop offset="0.855923" stop-color="#DFF6E7"/>
</linearGradient>
<linearGradient id="paint33_linear_3394_242399" x1="-147" y1="53" x2="1494" y2="53" gradientUnits="userSpaceOnUse">
<stop offset="0.216002" stop-color="#DFF6E7" stop-opacity="0"/>
<stop offset="0.855923" stop-color="#DFF6E7"/>
</linearGradient>
<linearGradient id="paint34_linear_3394_242399" x1="-147" y1="53" x2="1494" y2="53" gradientUnits="userSpaceOnUse">
<stop offset="0.216002" stop-color="#DFF6E7" stop-opacity="0"/>
<stop offset="0.855923" stop-color="#DFF6E7"/>
</linearGradient>
<linearGradient id="paint35_linear_3394_242399" x1="-147" y1="53" x2="1494" y2="53" gradientUnits="userSpaceOnUse">
<stop offset="0.216002" stop-color="#DFF6E7" stop-opacity="0"/>
<stop offset="0.855923" stop-color="#DFF6E7"/>
</linearGradient>
<linearGradient id="paint36_linear_3394_242399" x1="-147" y1="53" x2="1494" y2="53" gradientUnits="userSpaceOnUse">
<stop offset="0.216002" stop-color="#DFF6E7" stop-opacity="0"/>
<stop offset="0.855923" stop-color="#DFF6E7"/>
</linearGradient>
<linearGradient id="paint37_linear_3394_242399" x1="-147" y1="53" x2="1494" y2="53" gradientUnits="userSpaceOnUse">
<stop offset="0.216002" stop-color="#DFF6E7" stop-opacity="0"/>
<stop offset="0.855923" stop-color="#DFF6E7"/>
</linearGradient>
<linearGradient id="paint38_linear_3394_242399" x1="-147" y1="53" x2="1494" y2="53" gradientUnits="userSpaceOnUse">
<stop offset="0.216002" stop-color="#DFF6E7" stop-opacity="0"/>
<stop offset="0.855923" stop-color="#DFF6E7"/>
</linearGradient>
<linearGradient id="paint39_linear_3394_242399" x1="-147" y1="53" x2="1494" y2="53" gradientUnits="userSpaceOnUse">
<stop offset="0.216002" stop-color="#DFF6E7" stop-opacity="0"/>
<stop offset="0.855923" stop-color="#DFF6E7"/>
</linearGradient>
<linearGradient id="paint40_linear_3394_242399" x1="-147" y1="53" x2="1494" y2="53" gradientUnits="userSpaceOnUse">
<stop offset="0.216002" stop-color="#DFF6E7" stop-opacity="0"/>
<stop offset="0.855923" stop-color="#DFF6E7"/>
</linearGradient>
<linearGradient id="paint41_linear_3394_242399" x1="-147" y1="53" x2="1494" y2="53" gradientUnits="userSpaceOnUse">
<stop offset="0.216002" stop-color="#DFF6E7" stop-opacity="0"/>
<stop offset="0.855923" stop-color="#DFF6E7"/>
</linearGradient>
<linearGradient id="paint42_linear_3394_242399" x1="-147" y1="53" x2="1494" y2="53" gradientUnits="userSpaceOnUse">
<stop offset="0.216002" stop-color="#DFF6E7" stop-opacity="0"/>
<stop offset="0.855923" stop-color="#DFF6E7"/>
</linearGradient>
<linearGradient id="paint43_linear_3394_242399" x1="-147" y1="53" x2="1494" y2="53" gradientUnits="userSpaceOnUse">
<stop offset="0.216002" stop-color="#DFF6E7" stop-opacity="0"/>
<stop offset="0.855923" stop-color="#DFF6E7"/>
</linearGradient>
<linearGradient id="paint44_linear_3394_242399" x1="-147" y1="53" x2="1494" y2="53" gradientUnits="userSpaceOnUse">
<stop offset="0.216002" stop-color="#DFF6E7" stop-opacity="0"/>
<stop offset="0.855923" stop-color="#DFF6E7"/>
</linearGradient>
<linearGradient id="paint45_linear_3394_242399" x1="-147" y1="53" x2="1494" y2="53" gradientUnits="userSpaceOnUse">
<stop offset="0.216002" stop-color="#DFF6E7" stop-opacity="0"/>
<stop offset="0.855923" stop-color="#DFF6E7"/>
</linearGradient>
<linearGradient id="paint46_linear_3394_242399" x1="-147" y1="53" x2="1494" y2="53" gradientUnits="userSpaceOnUse">
<stop offset="0.216002" stop-color="#DFF6E7" stop-opacity="0"/>
<stop offset="0.855923" stop-color="#DFF6E7"/>
</linearGradient>
<linearGradient id="paint47_linear_3394_242399" x1="-147" y1="53" x2="1494" y2="53" gradientUnits="userSpaceOnUse">
<stop offset="0.216002" stop-color="#DFF6E7" stop-opacity="0"/>
<stop offset="0.855923" stop-color="#DFF6E7"/>
</linearGradient>
<linearGradient id="paint48_linear_3394_242399" x1="-147" y1="53" x2="1494" y2="53" gradientUnits="userSpaceOnUse">
<stop offset="0.216002" stop-color="#DFF6E7" stop-opacity="0"/>
<stop offset="0.855923" stop-color="#DFF6E7"/>
</linearGradient>
<linearGradient id="paint49_linear_3394_242399" x1="-147" y1="53" x2="1494" y2="53" gradientUnits="userSpaceOnUse">
<stop offset="0.216002" stop-color="#DFF6E7" stop-opacity="0"/>
<stop offset="0.855923" stop-color="#DFF6E7"/>
</linearGradient>
<linearGradient id="paint50_linear_3394_242399" x1="-147" y1="53" x2="1494" y2="53" gradientUnits="userSpaceOnUse">
<stop offset="0.216002" stop-color="#DFF6E7" stop-opacity="0"/>
<stop offset="0.855923" stop-color="#DFF6E7"/>
</linearGradient>
<linearGradient id="paint51_linear_3394_242399" x1="-147" y1="53" x2="1494" y2="53" gradientUnits="userSpaceOnUse">
<stop offset="0.216002" stop-color="#DFF6E7" stop-opacity="0"/>
<stop offset="0.855923" stop-color="#DFF6E7"/>
</linearGradient>
<linearGradient id="paint52_linear_3394_242399" x1="-147" y1="53" x2="1494" y2="53" gradientUnits="userSpaceOnUse">
<stop offset="0.216002" stop-color="#DFF6E7" stop-opacity="0"/>
<stop offset="0.855923" stop-color="#DFF6E7"/>
</linearGradient>
<linearGradient id="paint53_linear_3394_242399" x1="-147" y1="53" x2="1494" y2="53" gradientUnits="userSpaceOnUse">
<stop offset="0.216002" stop-color="#DFF6E7" stop-opacity="0"/>
<stop offset="0.855923" stop-color="#DFF6E7"/>
</linearGradient>
<linearGradient id="paint54_linear_3394_242399" x1="-147" y1="53" x2="1494" y2="53" gradientUnits="userSpaceOnUse">
<stop offset="0.216002" stop-color="#DFF6E7" stop-opacity="0"/>
<stop offset="0.855923" stop-color="#DFF6E7"/>
</linearGradient>
<linearGradient id="paint55_linear_3394_242399" x1="-147" y1="53" x2="1494" y2="53" gradientUnits="userSpaceOnUse">
<stop offset="0.216002" stop-color="#DFF6E7" stop-opacity="0"/>
<stop offset="0.855923" stop-color="#DFF6E7"/>
</linearGradient>
<linearGradient id="paint56_linear_3394_242399" x1="-147" y1="53" x2="1494" y2="53" gradientUnits="userSpaceOnUse">
<stop offset="0.216002" stop-color="#DFF6E7" stop-opacity="0"/>
<stop offset="0.855923" stop-color="#DFF6E7"/>
</linearGradient>
<linearGradient id="paint57_linear_3394_242399" x1="-147" y1="53" x2="1494" y2="53" gradientUnits="userSpaceOnUse">
<stop offset="0.216002" stop-color="#DFF6E7" stop-opacity="0"/>
<stop offset="0.855923" stop-color="#DFF6E7"/>
</linearGradient>
<linearGradient id="paint58_linear_3394_242399" x1="-147" y1="53" x2="1494" y2="53" gradientUnits="userSpaceOnUse">
<stop offset="0.216002" stop-color="#DFF6E7" stop-opacity="0"/>
<stop offset="0.855923" stop-color="#DFF6E7"/>
</linearGradient>
<linearGradient id="paint59_linear_3394_242399" x1="-147" y1="53" x2="1494" y2="53" gradientUnits="userSpaceOnUse">
<stop offset="0.216002" stop-color="#DFF6E7" stop-opacity="0"/>
<stop offset="0.855923" stop-color="#DFF6E7"/>
</linearGradient>
<linearGradient id="paint60_linear_3394_242399" x1="-147" y1="53" x2="1494" y2="53" gradientUnits="userSpaceOnUse">
<stop offset="0.216002" stop-color="#DFF6E7" stop-opacity="0"/>
<stop offset="0.855923" stop-color="#DFF6E7"/>
</linearGradient>
<linearGradient id="paint61_linear_3394_242399" x1="-147" y1="53" x2="1494" y2="53" gradientUnits="userSpaceOnUse">
<stop offset="0.216002" stop-color="#DFF6E7" stop-opacity="0"/>
<stop offset="0.855923" stop-color="#DFF6E7"/>
</linearGradient>
<linearGradient id="paint62_linear_3394_242399" x1="-147" y1="53" x2="1494" y2="53" gradientUnits="userSpaceOnUse">
<stop offset="0.216002" stop-color="#DFF6E7" stop-opacity="0"/>
<stop offset="0.855923" stop-color="#DFF6E7"/>
</linearGradient>
<linearGradient id="paint63_linear_3394_242399" x1="-147" y1="53" x2="1494" y2="53" gradientUnits="userSpaceOnUse">
<stop offset="0.216002" stop-color="#DFF6E7" stop-opacity="0"/>
<stop offset="0.855923" stop-color="#DFF6E7"/>
</linearGradient>
<linearGradient id="paint64_linear_3394_242399" x1="-147" y1="53" x2="1494" y2="53" gradientUnits="userSpaceOnUse">
<stop offset="0.216002" stop-color="#DFF6E7" stop-opacity="0"/>
<stop offset="0.855923" stop-color="#DFF6E7"/>
</linearGradient>
<linearGradient id="paint65_linear_3394_242399" x1="-147" y1="53" x2="1494" y2="53" gradientUnits="userSpaceOnUse">
<stop offset="0.216002" stop-color="#DFF6E7" stop-opacity="0"/>
<stop offset="0.855923" stop-color="#DFF6E7"/>
</linearGradient>
<linearGradient id="paint66_linear_3394_242399" x1="-147" y1="53" x2="1494" y2="53" gradientUnits="userSpaceOnUse">
<stop offset="0.216002" stop-color="#DFF6E7" stop-opacity="0"/>
<stop offset="0.855923" stop-color="#DFF6E7"/>
</linearGradient>
<linearGradient id="paint67_linear_3394_242399" x1="-147" y1="53" x2="1494" y2="53" gradientUnits="userSpaceOnUse">
<stop offset="0.216002" stop-color="#DFF6E7" stop-opacity="0"/>
<stop offset="0.855923" stop-color="#DFF6E7"/>
</linearGradient>
<linearGradient id="paint68_linear_3394_242399" x1="-147" y1="53" x2="1494" y2="53" gradientUnits="userSpaceOnUse">
<stop offset="0.216002" stop-color="#DFF6E7" stop-opacity="0"/>
<stop offset="0.855923" stop-color="#DFF6E7"/>
</linearGradient>
<linearGradient id="paint69_linear_3394_242399" x1="-147" y1="53" x2="1494" y2="53" gradientUnits="userSpaceOnUse">
<stop offset="0.216002" stop-color="#DFF6E7" stop-opacity="0"/>
<stop offset="0.855923" stop-color="#DFF6E7"/>
</linearGradient>
<linearGradient id="paint70_linear_3394_242399" x1="-147" y1="53" x2="1494" y2="53" gradientUnits="userSpaceOnUse">
<stop offset="0.216002" stop-color="#DFF6E7" stop-opacity="0"/>
<stop offset="0.855923" stop-color="#DFF6E7"/>
</linearGradient>
<linearGradient id="paint71_linear_3394_242399" x1="-147" y1="53" x2="1494" y2="53" gradientUnits="userSpaceOnUse">
<stop offset="0.216002" stop-color="#DFF6E7" stop-opacity="0"/>
<stop offset="0.855923" stop-color="#DFF6E7"/>
</linearGradient>
<linearGradient id="paint72_linear_3394_242399" x1="-147" y1="53" x2="1494" y2="53" gradientUnits="userSpaceOnUse">
<stop offset="0.216002" stop-color="#DFF6E7" stop-opacity="0"/>
<stop offset="0.855923" stop-color="#DFF6E7"/>
</linearGradient>
<linearGradient id="paint73_linear_3394_242399" x1="-147" y1="53" x2="1494" y2="53" gradientUnits="userSpaceOnUse">
<stop offset="0.216002" stop-color="#DFF6E7" stop-opacity="0"/>
<stop offset="0.855923" stop-color="#DFF6E7"/>
</linearGradient>
<linearGradient id="paint74_linear_3394_242399" x1="-147" y1="53" x2="1494" y2="53" gradientUnits="userSpaceOnUse">
<stop offset="0.216002" stop-color="#DFF6E7" stop-opacity="0"/>
<stop offset="0.855923" stop-color="#DFF6E7"/>
</linearGradient>
<linearGradient id="paint75_linear_3394_242399" x1="-147" y1="53" x2="1494" y2="53" gradientUnits="userSpaceOnUse">
<stop offset="0.216002" stop-color="#DFF6E7" stop-opacity="0"/>
<stop offset="0.855923" stop-color="#DFF6E7"/>
</linearGradient>
<linearGradient id="paint76_linear_3394_242399" x1="-147" y1="53" x2="1494" y2="53" gradientUnits="userSpaceOnUse">
<stop offset="0.216002" stop-color="#DFF6E7" stop-opacity="0"/>
<stop offset="0.855923" stop-color="#DFF6E7"/>
</linearGradient>
<linearGradient id="paint77_linear_3394_242399" x1="-147" y1="53" x2="1494" y2="53" gradientUnits="userSpaceOnUse">
<stop offset="0.216002" stop-color="#DFF6E7" stop-opacity="0"/>
<stop offset="0.855923" stop-color="#DFF6E7"/>
</linearGradient>
<linearGradient id="paint78_linear_3394_242399" x1="-147" y1="53" x2="1494" y2="53" gradientUnits="userSpaceOnUse">
<stop offset="0.216002" stop-color="#DFF6E7" stop-opacity="0"/>
<stop offset="0.855923" stop-color="#DFF6E7"/>
</linearGradient>
<linearGradient id="paint79_linear_3394_242399" x1="-147" y1="53" x2="1494" y2="53" gradientUnits="userSpaceOnUse">
<stop offset="0.216002" stop-color="#DFF6E7" stop-opacity="0"/>
<stop offset="0.855923" stop-color="#DFF6E7"/>
</linearGradient>
<linearGradient id="paint80_linear_3394_242399" x1="-147" y1="53" x2="1494" y2="53" gradientUnits="userSpaceOnUse">
<stop offset="0.216002" stop-color="#DFF6E7" stop-opacity="0"/>
<stop offset="0.855923" stop-color="#DFF6E7"/>
</linearGradient>
<linearGradient id="paint81_linear_3394_242399" x1="-147" y1="53" x2="1494" y2="53" gradientUnits="userSpaceOnUse">
<stop offset="0.216002" stop-color="#DFF6E7" stop-opacity="0"/>
<stop offset="0.855923" stop-color="#DFF6E7"/>
</linearGradient>
<linearGradient id="paint82_linear_3394_242399" x1="-147" y1="53" x2="1494" y2="53" gradientUnits="userSpaceOnUse">
<stop offset="0.216002" stop-color="#DFF6E7" stop-opacity="0"/>
<stop offset="0.855923" stop-color="#DFF6E7"/>
</linearGradient>
<linearGradient id="paint83_linear_3394_242399" x1="-147" y1="53" x2="1494" y2="53" gradientUnits="userSpaceOnUse">
<stop offset="0.216002" stop-color="#DFF6E7" stop-opacity="0"/>
<stop offset="0.855923" stop-color="#DFF6E7"/>
</linearGradient>
<linearGradient id="paint84_linear_3394_242399" x1="-147" y1="53" x2="1494" y2="53" gradientUnits="userSpaceOnUse">
<stop offset="0.216002" stop-color="#DFF6E7" stop-opacity="0"/>
<stop offset="0.855923" stop-color="#DFF6E7"/>
</linearGradient>
<linearGradient id="paint85_linear_3394_242399" x1="-147" y1="53" x2="1494" y2="53" gradientUnits="userSpaceOnUse">
<stop offset="0.216002" stop-color="#DFF6E7" stop-opacity="0"/>
<stop offset="0.855923" stop-color="#DFF6E7"/>
</linearGradient>
<linearGradient id="paint86_linear_3394_242399" x1="-147" y1="53" x2="1494" y2="53" gradientUnits="userSpaceOnUse">
<stop offset="0.216002" stop-color="#DFF6E7" stop-opacity="0"/>
<stop offset="0.855923" stop-color="#DFF6E7"/>
</linearGradient>
<linearGradient id="paint87_linear_3394_242399" x1="-147" y1="53" x2="1494" y2="53" gradientUnits="userSpaceOnUse">
<stop offset="0.216002" stop-color="#DFF6E7" stop-opacity="0"/>
<stop offset="0.855923" stop-color="#DFF6E7"/>
</linearGradient>
<linearGradient id="paint88_linear_3394_242399" x1="-147" y1="53" x2="1494" y2="53" gradientUnits="userSpaceOnUse">
<stop offset="0.216002" stop-color="#DFF6E7" stop-opacity="0"/>
<stop offset="0.855923" stop-color="#DFF6E7"/>
</linearGradient>
<linearGradient id="paint89_linear_3394_242399" x1="-147" y1="53" x2="1494" y2="53" gradientUnits="userSpaceOnUse">
<stop offset="0.216002" stop-color="#DFF6E7" stop-opacity="0"/>
<stop offset="0.855923" stop-color="#DFF6E7"/>
</linearGradient>
</defs>
</svg>
