<svg width="1440" height="53" viewBox="0 0 1440 53" fill="none" xmlns="http://www.w3.org/2000/svg">
<path fill-rule="evenodd" clip-rule="evenodd" d="M1468.52 0.0299339L1508.91 29.0474L1549.31 0.0233765L1508.92 -28.9941L1468.52 0.0299339Z" fill="url(#paint0_linear_3394_242398)"/>
<path d="M1576.61 -22.6939C1582.34 -22.6939 1587 -27.3506 1587 -33.078C1587 -38.8043 1582.34 -43.4632 1576.61 -43.4632C1570.88 -43.4632 1566.21 -38.8054 1566.21 -33.078C1566.21 -27.3506 1570.88 -22.6939 1576.61 -22.6939ZM1576.61 -38.8512C1579.79 -38.8512 1582.39 -36.2617 1582.39 -33.078C1582.39 -29.8965 1579.79 -27.3059 1576.61 -27.3059C1573.42 -27.3059 1570.83 -29.8954 1570.83 -33.078C1570.83 -36.2617 1573.42 -38.8512 1576.61 -38.8512Z" fill="url(#paint1_linear_3394_242398)"/>
<path d="M1576.61 43.5217C1582.34 43.5217 1587 38.8638 1587 33.1365C1587 27.4102 1582.34 22.7502 1576.61 22.7502C1570.87 22.7502 1566.21 27.4102 1566.21 33.1365C1566.21 38.8628 1570.87 43.5217 1576.61 43.5217ZM1576.61 27.3622C1579.79 27.3622 1582.39 29.9528 1582.39 33.1365C1582.39 36.3202 1579.79 38.9096 1576.61 38.9096C1573.42 38.9096 1570.83 36.3202 1570.83 33.1365C1570.83 29.9517 1573.42 27.3622 1576.61 27.3622Z" fill="url(#paint2_linear_3394_242398)"/>
<path fill-rule="evenodd" clip-rule="evenodd" d="M1333.46 0.0175552L1373.85 29.035L1414.25 0.0109978L1373.86 -29.0065L1333.46 0.0175552Z" fill="url(#paint3_linear_3394_242398)"/>
<path fill-rule="evenodd" clip-rule="evenodd" d="M1198.41 0.0299339L1238.8 29.0474L1279.19 0.0233765L1238.8 -28.9941L1198.41 0.0299339Z" fill="url(#paint4_linear_3394_242398)"/>
<path d="M1441.35 -22.6939C1447.08 -22.6939 1451.74 -27.3506 1451.74 -33.078C1451.74 -38.8043 1447.08 -43.4632 1441.35 -43.4632C1435.61 -43.4632 1430.95 -38.8054 1430.95 -33.078C1430.95 -27.3506 1435.61 -22.6939 1441.35 -22.6939ZM1441.35 -38.8512C1444.53 -38.8512 1447.13 -36.2617 1447.13 -33.078C1447.13 -29.8965 1444.53 -27.3059 1441.35 -27.3059C1438.16 -27.3059 1435.57 -29.8954 1435.57 -33.078C1435.57 -36.2617 1438.16 -38.8512 1441.35 -38.8512Z" fill="url(#paint5_linear_3394_242398)"/>
<path d="M1441.42 43.5156C1447.15 43.5156 1451.81 38.8578 1451.81 33.1304C1451.81 27.4041 1447.15 22.7442 1441.42 22.7442C1435.68 22.7442 1431.02 27.4041 1431.02 33.1304C1431.02 38.8567 1435.68 43.5156 1441.42 43.5156ZM1441.42 27.3562C1444.6 27.3562 1447.2 29.9467 1447.2 33.1304C1447.2 36.3141 1444.6 38.9036 1441.42 38.9036C1438.23 38.9036 1435.64 36.3141 1435.64 33.1304C1435.64 29.9457 1438.23 27.3562 1441.42 27.3562Z" fill="url(#paint6_linear_3394_242398)"/>
<path d="M1306.31 -22.5166C1312.04 -22.5166 1316.7 -27.1733 1316.7 -32.9007C1316.7 -38.627 1312.04 -43.2859 1306.31 -43.2859C1300.58 -43.2859 1295.92 -38.6281 1295.92 -32.9007C1295.92 -27.1733 1300.58 -22.5166 1306.31 -22.5166ZM1306.31 -38.6739C1309.5 -38.6739 1312.09 -36.0844 1312.09 -32.9007C1312.09 -29.7192 1309.5 -27.1287 1306.31 -27.1287C1303.12 -27.1287 1300.53 -29.7181 1300.53 -32.9007C1300.53 -36.0844 1303.12 -38.6739 1306.31 -38.6739Z" fill="url(#paint7_linear_3394_242398)"/>
<path d="M1306.31 43.5047C1312.04 43.5047 1316.7 38.8468 1316.7 33.1195C1316.7 27.3932 1312.04 22.7332 1306.31 22.7332C1300.58 22.7332 1295.92 27.3932 1295.92 33.1195C1295.92 38.8458 1300.58 43.5047 1306.31 43.5047ZM1306.31 27.3452C1309.5 27.3452 1312.09 29.9358 1312.09 33.1195C1312.09 36.3032 1309.5 38.8926 1306.31 38.8926C1303.12 38.8926 1300.53 36.3032 1300.53 33.1195C1300.53 29.9347 1303.12 27.3452 1306.31 27.3452Z" fill="url(#paint8_linear_3394_242398)"/>
<path d="M1441.36 5.43261L1434.17 -0.00775909L1441.41 -5.41095L1448.6 0.027195L1441.36 5.43261Z" fill="url(#paint9_linear_3394_242398)"/>
<path d="M1508.91 43.3476C1505.11 46.0696 1508.34 42.9365 1511.03 44.869C1510.33 44.3619 1509.62 43.8548 1508.91 43.3476C1508.93 43.3344 1508.95 43.3212 1508.97 43.3077C1511.41 41.5545 1513.85 39.8035 1516.29 38.0513C1524.08 32.4548 1531.86 26.8615 1539.65 21.266C1549.51 14.1851 1559.37 7.10263 1569.22 0.0219269C1570.96 1.26652 1572.69 2.5111 1574.42 3.75568V-3.71184C1572.69 -2.46732 1570.96 -1.22272 1569.22 0.0219269C1549.12 -14.4174 1529.02 -28.8575 1508.91 -43.2968C1512.71 -46.0194 1509.49 -42.8862 1506.8 -44.8178C1507.5 -44.3108 1508.21 -43.8038 1508.91 -43.2968C1508.9 -43.2834 1508.88 -43.2699 1508.86 -43.2562C1506.42 -41.503 1503.98 -39.752 1501.54 -37.9999C1493.75 -32.4066 1485.96 -26.8111 1478.17 -21.2167C1468.31 -14.1349 1458.46 -7.05378 1448.6 0.027195L1441.41 -5.41095C1463.18 -21.052 1484.96 -36.692 1506.73 -52.3331C1507.87 -53.1508 1509.96 -53.1508 1511.1 -52.3331C1533.66 -36.1267 1556.22 -19.9182 1578.79 -3.71075C1581.56 -1.72312 1581.56 1.76804 1578.79 3.75676C1556.22 19.9653 1533.66 36.1771 1511.1 52.3867C1509.96 53.2044 1507.87 53.2044 1506.73 52.3867C1484.94 36.734 1463.15 21.0823 1441.36 5.43261L1448.6 0.027195C1468.7 14.4676 1488.81 28.9072 1508.91 43.3476Z" fill="url(#paint10_linear_3394_242398)"/>
<path d="M1171.17 -22.6975C1176.9 -22.6975 1181.56 -27.3543 1181.56 -33.0816C1181.56 -38.8079 1176.9 -43.4668 1171.17 -43.4668C1165.43 -43.4668 1160.77 -38.809 1160.77 -33.0816C1160.77 -27.3543 1165.43 -22.6975 1171.17 -22.6975ZM1171.17 -38.8548C1174.35 -38.8548 1176.95 -36.2653 1176.95 -33.0816C1176.95 -29.9001 1174.35 -27.3096 1171.17 -27.3096C1167.98 -27.3096 1165.39 -29.899 1165.39 -33.0816C1165.39 -36.2653 1167.98 -38.8548 1171.17 -38.8548Z" fill="url(#paint11_linear_3394_242398)"/>
<path d="M1171.19 43.4933C1176.92 43.4933 1181.59 38.8355 1181.59 33.1081C1181.59 27.3818 1176.92 22.7218 1171.19 22.7218C1165.46 22.7218 1160.8 27.3818 1160.8 33.1081C1160.8 38.8344 1165.46 43.4933 1171.19 43.4933ZM1171.19 27.3338C1174.38 27.3338 1176.97 29.9244 1176.97 33.1081C1176.97 36.2918 1174.38 38.8813 1171.19 38.8813C1168.01 38.8813 1165.42 36.2918 1165.42 33.1081C1165.42 29.9233 1168.01 27.3338 1171.19 27.3338Z" fill="url(#paint12_linear_3394_242398)"/>
<path d="M1171.28 -5.41117L1178.49 0.0124283L1171.27 5.43517L1164.06 0.00933838L1171.28 -5.41117Z" fill="url(#paint13_linear_3394_242398)"/>
<path d="M1373.91 43.278C1376.35 41.5248 1378.79 39.7738 1381.23 38.0217C1389.02 32.4251 1396.81 26.8318 1404.6 21.2363C1414.45 14.1554 1424.31 7.07295 1434.17 -0.00775909L1441.36 5.43261C1419.59 21.0728 1397.81 36.716 1376.04 52.357C1374.9 53.1748 1372.81 53.1748 1371.67 52.357C1349.89 36.7122 1328.11 21.0683 1306.34 5.42643C1307.12 4.86495 1312.76 0.559002 1313.54 -0.00247574C1333.65 14.4379 1353.75 28.8775 1373.86 43.3179C1370.05 46.0399 1373.28 42.9068 1375.98 44.8393L1373.86 43.3179L1373.91 43.278Z" fill="url(#paint14_linear_3394_242398)"/>
<path d="M1306.32 -5.41953C1307.11 -4.85486 1312.75 -0.567142 1313.54 -0.00247574C1312.76 0.559002 1307.12 4.86495 1306.34 5.42643C1305.04 4.49852 1300.41 0.935062 1299.11 0.00714493C1299.75 -0.452831 1301.23 -1.57752 1302.71 -2.70286L1302.72 -2.70436L1306.32 -5.41953Z" fill="url(#paint15_linear_3394_242398)"/>
<path d="M1373.8 -43.2859C1371.36 -41.5327 1368.92 -39.7817 1366.48 -38.0296C1358.69 -32.4363 1350.91 -26.8408 1343.11 -21.2464C1333.26 -14.1645 1323.4 -7.08345 1313.54 -0.00247574C1312.75 -0.567142 1307.11 -4.85486 1306.32 -5.41953C1328.11 -21.0676 1349.89 -36.7146 1371.67 -52.3627C1372.81 -53.1805 1374.9 -53.1805 1376.04 -52.3627C1397.83 -36.7132 1419.62 -21.0616 1441.41 -5.41095L1434.17 -0.00775909C1414.06 -14.4471 1393.96 -28.8872 1373.86 -43.3264C1377.66 -46.0491 1374.43 -42.9159 1371.74 -44.8474L1373.86 -43.3264L1373.8 -43.2859Z" fill="url(#paint16_linear_3394_242398)"/>
<path d="M1238.75 -43.271C1236.31 -41.5178 1233.87 -39.7668 1231.43 -38.0146C1223.64 -32.4214 1215.85 -26.8259 1208.06 -21.2315C1198.2 -14.1496 1188.35 -7.06855 1178.49 0.0124283L1171.28 -5.41117C1193.06 -21.057 1214.84 -36.7019 1236.62 -52.3478C1237.76 -53.1656 1239.85 -53.1656 1240.99 -52.3478C1262.77 -36.7061 1284.54 -21.0624 1306.32 -5.41953C1305.68 -4.95888 1304.2 -3.83144 1302.72 -2.70436L1302.71 -2.70286L1299.11 0.00714493C1279.01 -14.4322 1258.91 -28.8723 1238.8 -43.3115C1242.6 -46.0342 1239.38 -42.901 1236.69 -44.8325L1238.8 -43.3115L1238.75 -43.271Z" fill="url(#paint17_linear_3394_242398)"/>
<path d="M1238.86 43.2929C1241.3 41.5397 1243.74 39.7887 1246.18 38.0366C1253.97 32.44 1261.75 26.8467 1269.54 21.2513C1279.4 14.1703 1289.26 7.08786 1299.11 0.00714493C1300.41 0.935062 1305.04 4.49852 1306.34 5.42643C1284.55 21.0737 1262.77 36.7238 1240.99 52.3719C1239.85 53.1897 1237.76 53.1897 1236.62 52.3719C1214.84 36.725 1193.06 21.0791 1171.27 5.43517L1178.49 0.0124283L1198.46 14.3602C1211.91 24.0176 1225.36 33.675 1238.8 43.3328C1235 46.0548 1238.23 42.9217 1240.92 44.8542L1238.8 43.3328L1238.86 43.2929Z" fill="url(#paint18_linear_3394_242398)"/>
<path fill-rule="evenodd" clip-rule="evenodd" d="M604.386 -0.00597763L563.993 -29.0235L523.597 0.000579834L563.989 29.0181L604.386 -0.00597763Z" fill="url(#paint19_linear_3394_242398)"/>
<path d="M496.297 22.7179C490.566 22.7179 485.904 27.3746 485.904 33.102C485.904 38.8283 490.566 43.4872 496.297 43.4872C502.029 43.4872 506.69 38.8294 506.69 33.102C506.692 27.3746 502.029 22.7179 496.297 22.7179ZM496.297 38.8752C493.11 38.8752 490.517 36.2857 490.517 33.102C490.517 29.9204 493.11 27.3299 496.297 27.3299C499.484 27.3299 502.075 29.9194 502.075 33.102C502.075 36.2857 499.484 38.8752 496.297 38.8752Z" fill="url(#paint20_linear_3394_242398)"/>
<path d="M496.299 -43.4977C490.568 -43.4977 485.906 -38.8399 485.906 -33.1125C485.906 -27.3862 490.568 -22.7262 496.299 -22.7262C502.031 -22.7262 506.692 -27.3862 506.692 -33.1125C506.693 -38.8388 502.031 -43.4977 496.299 -43.4977ZM496.299 -27.3382C493.112 -27.3382 490.519 -29.9288 490.519 -33.1125C490.519 -36.2962 493.112 -38.8857 496.299 -38.8857C499.486 -38.8857 502.076 -36.2962 502.076 -33.1125C502.076 -29.9277 499.486 -27.3382 496.299 -27.3382Z" fill="url(#paint21_linear_3394_242398)"/>
<path fill-rule="evenodd" clip-rule="evenodd" d="M739.442 0.00640106L699.049 -29.0111L658.653 0.0129585L699.045 29.0304L739.442 0.00640106Z" fill="url(#paint22_linear_3394_242398)"/>
<path fill-rule="evenodd" clip-rule="evenodd" d="M874.498 -0.00597763L834.105 -29.0235L793.709 0.000579834L834.101 29.0181L874.498 -0.00597763Z" fill="url(#paint23_linear_3394_242398)"/>
<path fill-rule="evenodd" clip-rule="evenodd" d="M1009.55 -0.00291061L969.158 -29.0204L928.762 0.00364685L969.154 29.0211L1009.55 -0.00291061Z" fill="url(#paint24_linear_3394_242398)"/>
<path d="M1036.1 -43.4978C1030.36 -43.4978 1025.7 -38.84 1025.7 -33.1126C1025.7 -27.3863 1030.36 -22.7263 1036.1 -22.7263C1041.83 -22.7263 1046.49 -27.3863 1046.49 -33.1126C1046.49 -38.8389 1041.83 -43.4978 1036.1 -43.4978ZM1036.1 -27.3383C1032.91 -27.3383 1030.32 -29.9289 1030.32 -33.1126C1030.32 -36.2963 1032.91 -38.8858 1036.1 -38.8858C1039.28 -38.8858 1041.87 -36.2963 1041.87 -33.1126C1041.87 -29.9278 1039.28 -27.3383 1036.1 -27.3383Z" fill="url(#paint25_linear_3394_242398)"/>
<path fill-rule="evenodd" clip-rule="evenodd" d="M1009.55 -0.00291061L969.158 -29.0204L928.762 0.00364685L969.154 29.0211L1009.55 -0.00291061Z" fill="url(#paint26_linear_3394_242398)"/>
<path d="M1036.1 -43.4978C1030.36 -43.4978 1025.7 -38.84 1025.7 -33.1126C1025.7 -27.3863 1030.36 -22.7263 1036.1 -22.7263C1041.83 -22.7263 1046.49 -27.3863 1046.49 -33.1126C1046.49 -38.8389 1041.83 -43.4978 1036.1 -43.4978ZM1036.1 -27.3383C1032.91 -27.3383 1030.32 -29.9289 1030.32 -33.1126C1030.32 -36.2963 1032.91 -38.8858 1036.1 -38.8858C1039.28 -38.8858 1041.87 -36.2963 1041.87 -33.1126C1041.87 -29.9278 1039.28 -27.3383 1036.1 -27.3383Z" fill="url(#paint27_linear_3394_242398)"/>
<path d="M1036.1 22.7189C1030.37 22.7189 1025.7 27.3756 1025.7 33.103C1025.7 38.8293 1030.37 43.4882 1036.1 43.4882C1041.83 43.4882 1046.49 38.8303 1046.49 33.103C1046.49 27.3756 1041.83 22.7189 1036.1 22.7189ZM1036.1 38.8761C1032.91 38.8761 1030.32 36.2867 1030.32 33.103C1030.32 29.9214 1032.91 27.3309 1036.1 27.3309C1039.28 27.3309 1041.88 29.9203 1041.88 33.103C1041.88 36.2867 1039.28 38.8761 1036.1 38.8761Z" fill="url(#paint28_linear_3394_242398)"/>
<path d="M631.558 22.7179C625.827 22.7179 621.166 27.3746 621.166 33.102C621.166 38.8283 625.827 43.4872 631.558 43.4872C637.29 43.4872 641.952 38.8294 641.952 33.102C641.953 27.3746 637.29 22.7179 631.558 22.7179ZM631.558 38.8752C628.372 38.8752 625.778 36.2857 625.778 33.102C625.778 29.9204 628.372 27.3299 631.558 27.3299C634.746 27.3299 637.336 29.9194 637.336 33.102C637.336 36.2857 634.746 38.8752 631.558 38.8752Z" fill="url(#paint29_linear_3394_242398)"/>
<path d="M631.487 -43.4917C625.756 -43.4917 621.095 -38.8339 621.095 -33.1065C621.095 -27.3802 625.756 -22.7202 631.487 -22.7202C637.22 -22.7202 641.881 -27.3802 641.881 -33.1065C641.882 -38.8328 637.22 -43.4917 631.487 -43.4917ZM631.487 -27.3322C628.301 -27.3322 625.707 -29.9228 625.707 -33.1065C625.707 -36.2902 628.301 -38.8797 631.487 -38.8797C634.675 -38.8797 637.265 -36.2902 637.265 -33.1065C637.265 -29.9217 634.675 -27.3322 631.487 -27.3322Z" fill="url(#paint30_linear_3394_242398)"/>
<path d="M766.592 22.5406C760.861 22.5406 756.2 27.1973 756.2 32.9247C756.2 38.651 760.861 43.3099 766.592 43.3099C772.324 43.3099 776.986 38.6521 776.986 32.9247C776.987 27.1973 772.324 22.5406 766.592 22.5406ZM766.592 38.6979C763.406 38.6979 760.812 36.1084 760.812 32.9247C760.812 29.7432 763.406 27.1526 766.592 27.1526C769.78 27.1526 772.37 29.7421 772.37 32.9247C772.37 36.1084 769.78 38.6979 766.592 38.6979Z" fill="url(#paint31_linear_3394_242398)"/>
<path d="M766.592 -43.4807C760.861 -43.4807 756.2 -38.8229 756.2 -33.0955C756.2 -27.3692 760.861 -22.7092 766.592 -22.7092C772.324 -22.7092 776.986 -27.3692 776.986 -33.0955C776.987 -38.8218 772.324 -43.4807 766.592 -43.4807ZM766.592 -27.3212C763.406 -27.3212 760.812 -29.9118 760.812 -33.0955C760.812 -36.2792 763.406 -38.8687 766.592 -38.8687C769.78 -38.8687 772.37 -36.2792 772.37 -33.0955C772.37 -29.9107 769.78 -27.3212 766.592 -27.3212Z" fill="url(#paint32_linear_3394_242398)"/>
<path d="M631.545 -5.40866L638.737 0.0317154L631.496 5.43491L624.306 -0.00323868L631.545 -5.40866Z" fill="url(#paint33_linear_3394_242398)"/>
<path d="M901.738 22.7215C896.007 22.7215 891.345 27.3782 891.345 33.1056C891.345 38.8319 896.007 43.4908 901.738 43.4908C907.47 43.4908 912.131 38.833 912.131 33.1056C912.132 27.3782 907.47 22.7215 901.738 22.7215ZM901.738 38.8788C898.551 38.8788 895.958 36.2893 895.958 33.1056C895.958 29.9241 898.551 27.3335 901.738 27.3335C904.925 27.3335 907.516 29.923 907.516 33.1056C907.516 36.2893 904.925 38.8788 901.738 38.8788Z" fill="url(#paint34_linear_3394_242398)"/>
<path d="M901.711 -43.4693C895.98 -43.4693 891.318 -38.8115 891.318 -33.0841C891.318 -27.3578 895.98 -22.6978 901.711 -22.6978C907.443 -22.6978 912.105 -27.3578 912.105 -33.0841C912.106 -38.8104 907.443 -43.4693 901.711 -43.4693ZM901.711 -27.3098C898.525 -27.3098 895.931 -29.9004 895.931 -33.0841C895.931 -36.2678 898.525 -38.8573 901.711 -38.8573C904.898 -38.8573 907.489 -36.2678 907.489 -33.0841C907.489 -29.8993 904.898 -27.3098 901.711 -27.3098Z" fill="url(#paint35_linear_3394_242398)"/>
<path d="M901.626 5.43513L894.416 0.011528L901.631 -5.41121L908.843 0.0146179L901.626 5.43513Z" fill="url(#paint36_linear_3394_242398)"/>
<path d="M698.991 -43.2541C696.549 -41.5009 694.111 -39.7498 691.673 -37.9977C683.883 -32.4011 676.096 -26.8079 668.308 -21.2124C658.45 -14.1315 648.594 -7.049 638.737 0.0317154L631.545 -5.40866C653.319 -21.0489 675.089 -36.692 696.863 -52.3331C698.001 -53.1508 700.093 -53.1508 701.231 -52.3331C723.011 -36.6882 744.79 -21.0443 766.569 -5.40247C765.787 -4.84099 760.145 -0.535042 759.363 0.026432C739.257 -14.4139 719.152 -28.8535 699.047 -43.294C702.849 -46.0159 699.62 -42.8829 696.929 -44.8154L699.047 -43.294L698.991 -43.2541Z" fill="url(#paint37_linear_3394_242398)"/>
<path d="M766.582 5.44349C765.796 4.87882 760.149 0.591099 759.363 0.026432C760.145 -0.535042 765.787 -4.84099 766.569 -5.40247C767.861 -4.47456 772.498 -0.911106 773.79 0.0168114C773.15 0.476791 771.671 1.60148 770.191 2.72682L770.189 2.72831L770.182 2.73299L770.182 2.73365L770.18 2.73468L770.178 2.73666L766.582 5.44349Z" fill="url(#paint38_linear_3394_242398)"/>
<path d="M834.044 -43.269C831.602 -41.5158 829.164 -39.7647 826.727 -38.0126C818.936 -32.4161 811.149 -26.8228 803.361 -21.2273C793.503 -14.1464 783.648 -7.0639 773.79 0.0168114C772.498 -0.911106 767.861 -4.47456 766.569 -5.40247C788.352 -21.0497 810.133 -36.6999 831.916 -52.348C833.054 -53.1657 835.147 -53.1657 836.285 -52.348C858.067 -36.701 879.849 -21.0551 901.631 -5.41121L894.416 0.011528L874.439 -14.3362C860.993 -23.9937 847.546 -33.6511 834.1 -43.3089C837.902 -46.0309 834.673 -42.8978 831.982 -44.8303L834.1 -43.3089L834.044 -43.269Z" fill="url(#paint39_linear_3394_242398)"/>
<path d="M1103.81 43.2951C1106.25 41.5419 1108.69 39.7909 1111.12 38.0387C1118.91 32.4422 1126.7 26.8489 1134.49 21.2534C1144.35 14.1725 1154.2 7.09005 1164.06 0.00933838L1171.27 5.43517C1149.49 21.0803 1127.72 36.7282 1105.93 52.3741C1104.8 53.1918 1102.7 53.1918 1101.57 52.3741C1079.85 36.7765 1058.18 21.1776 1036.47 5.583L1043.44 0.0146179L1064.13 14.8751C1077.33 24.3617 1090.54 33.8482 1103.75 43.335C1099.95 46.057 1103.18 42.9239 1105.87 44.8564L1103.75 43.335L1103.81 43.2951Z" fill="url(#paint40_linear_3394_242398)"/>
<path d="M1103.69 -43.2688C1101.25 -41.5156 1098.81 -39.7646 1096.38 -38.0125C1088.59 -32.4192 1080.8 -26.8237 1073.01 -21.2293C1063.15 -14.1475 1053.29 -7.06635 1043.44 0.0146179L1036.48 -5.56126C1058.19 -21.1571 1079.86 -36.7498 1101.57 -52.3457C1102.7 -53.1634 1104.8 -53.1634 1105.93 -52.3457C1127.72 -36.7019 1149.5 -21.0561 1171.28 -5.41117L1164.06 0.00933838C1143.96 -14.43 1123.86 -28.8701 1103.75 -43.3093C1107.55 -46.032 1104.32 -42.8988 1101.63 -44.8304L1103.75 -43.3093L1103.69 -43.2688Z" fill="url(#paint41_linear_3394_242398)"/>
<path d="M1063.35 0.0268669L1103.75 29.0444L1144.14 0.0203133L1103.75 -28.9972L1063.35 0.0268669Z" fill="url(#paint42_linear_3394_242398)"/>
<path d="M969.097 -43.2712C966.655 -41.518 964.217 -39.7669 961.779 -38.0148C953.989 -32.4182 946.202 -26.825 938.414 -21.2295C928.556 -14.1486 918.7 -7.06609 908.843 0.0146179L901.631 -5.41121C923.411 -21.0563 945.188 -36.7042 966.969 -52.3502C968.107 -53.1679 970.199 -53.1679 971.337 -52.3502C993.051 -36.7525 1014.76 -21.1559 1036.48 -5.56126L1029.47 0.00933838L1008.91 -14.7573C995.656 -24.2752 982.404 -33.7929 969.153 -43.3111C972.955 -46.033 969.726 -42.9 967.035 -44.8325L969.153 -43.3111L969.097 -43.2712Z" fill="url(#paint43_linear_3394_242398)"/>
<path d="M1036.48 -5.56126L1043.44 0.0146179L1036.47 5.583L1029.47 0.00933838L1036.48 -5.56126Z" fill="url(#paint44_linear_3394_242398)"/>
<path d="M969.209 43.2928C971.649 41.5396 974.09 39.7885 976.527 38.0364C984.317 32.4431 992.104 26.8477 999.896 21.2533C1009.75 14.1714 1019.61 7.09031 1029.47 0.00933838L1036.47 5.583C1014.76 21.1788 993.048 36.7737 971.337 52.3696C970.199 53.1873 968.107 53.1873 966.969 52.3696C945.187 36.7258 923.408 21.08 901.626 5.43513L908.843 0.0146179L931.415 16.2275C943.994 25.2629 956.573 34.2982 969.153 43.3333C965.352 46.0559 968.58 42.9228 971.271 44.8542L969.153 43.3333L969.209 43.2928Z" fill="url(#paint45_linear_3394_242398)"/>
<path d="M1574.42 -3.71184V3.75568L1569.22 0.0219269L1574.42 -3.71184Z" fill="url(#paint46_linear_3394_242398)"/>
<path d="M1508.91 -43.2968C1512.71 -46.0194 1509.49 -42.8862 1506.8 -44.8178L1508.91 -43.2968Z" fill="url(#paint47_linear_3394_242398)"/>
<path d="M563.99 43.3207C560.19 46.0434 563.418 42.9101 566.108 44.8417L563.99 43.3207Z" fill="url(#paint48_linear_3394_242398)"/>
<path d="M699.103 43.3099C701.543 41.5567 703.984 39.8056 706.421 38.0535C714.211 32.4602 721.998 26.8648 729.79 21.2704C739.647 14.1885 749.505 7.10741 759.363 0.026432C760.149 0.591099 765.796 4.87882 766.582 5.44349C744.799 21.0915 723.015 36.7386 701.231 52.3867C700.093 53.2044 698.001 53.2044 696.863 52.3867C675.073 36.7372 653.286 21.0856 631.496 5.43491L638.737 0.0317154L661.355 16.2776L662.537 17.1269C674.707 25.8681 686.877 34.6094 699.047 43.3504C695.247 46.073 698.474 42.9398 701.165 44.8714L699.047 43.3504L699.103 43.3099Z" fill="url(#paint49_linear_3394_242398)"/>
<path d="M699.047 43.3504C695.247 46.073 698.474 42.9398 701.165 44.8714L699.047 43.3504Z" fill="url(#paint50_linear_3394_242398)"/>
<path fill-rule="evenodd" clip-rule="evenodd" d="M834.1 43.3355C821.95 34.6092 809.801 25.8826 797.652 17.156L796.535 16.354C809.057 25.3479 821.578 34.3419 834.1 43.3355ZM770.182 2.73299L770.182 2.73365L770.18 2.73468L770.182 2.73299Z" fill="url(#paint51_linear_3394_242398)"/>
<path d="M834.1 43.3355C830.3 46.0581 833.527 42.9249 836.218 44.8565L834.1 43.3355Z" fill="url(#paint52_linear_3394_242398)"/>
<path d="M834.157 43.295C836.597 41.5418 839.038 39.7907 841.474 38.0386C849.265 32.4453 857.052 26.8499 864.843 21.2555C874.7 14.1736 884.558 7.0925 894.416 0.011528L901.626 5.43513C879.846 21.081 858.065 36.7259 836.285 52.3718C835.147 53.1895 833.054 53.1895 831.916 52.3718C810.137 36.7301 788.361 21.0863 766.582 5.44349C767.222 4.98398 768.699 3.86094 770.178 2.73666L770.18 2.73468L770.182 2.73365L770.182 2.73299L770.189 2.72831L770.191 2.72682L773.79 0.0168114L796.535 16.354L797.652 17.156C809.801 25.8826 821.95 34.6092 834.1 43.3355C830.3 46.0581 833.527 42.9249 836.218 44.8565L834.1 43.3355L834.157 43.295Z" fill="url(#paint53_linear_3394_242398)"/>
<path d="M969.153 43.3333C965.352 46.0559 968.58 42.9228 971.271 44.8542L969.153 43.3333Z" fill="url(#paint54_linear_3394_242398)"/>
<path d="M1103.75 -43.3093C1107.55 -46.032 1104.32 -42.8988 1101.63 -44.8304L1103.75 -43.3093Z" fill="url(#paint55_linear_3394_242398)"/>
<path d="M1238.8 -43.3115C1242.6 -46.0342 1239.38 -42.901 1236.69 -44.8325L1238.8 -43.3115Z" fill="url(#paint56_linear_3394_242398)"/>
<path d="M1373.86 -43.3264C1377.66 -46.0491 1374.43 -42.9159 1371.74 -44.8474L1373.86 -43.3264Z" fill="url(#paint57_linear_3394_242398)"/>
<path fill-rule="evenodd" clip-rule="evenodd" d="M64.4817 -0.0299263L24.0891 -29.0474L-16.3066 -0.0233727L24.0846 28.9941L64.4817 -0.0299263Z" fill="url(#paint58_linear_3394_242398)"/>
<path d="M-43.6073 22.6939C-49.3384 22.6939 -54 27.3506 -54 33.078C-54 38.8043 -49.3384 43.4632 -43.6073 43.4632C-37.8751 43.4632 -33.2135 38.8054 -33.2135 33.078C-33.2124 27.3506 -37.8751 22.6939 -43.6073 22.6939ZM-43.6073 38.8512C-46.7937 38.8512 -49.3873 36.2617 -49.3873 33.078C-49.3873 29.8965 -46.7937 27.3059 -43.6073 27.3059C-40.4199 27.3059 -37.8293 29.8954 -37.8293 33.078C-37.8293 36.2617 -40.4199 38.8512 -43.6073 38.8512Z" fill="url(#paint59_linear_3394_242398)"/>
<path d="M-43.6055 -43.5216C-49.3365 -43.5216 -53.9982 -38.8638 -53.9982 -33.1365C-53.9982 -27.4102 -49.3365 -22.7502 -43.6055 -22.7502C-37.8733 -22.7502 -33.2117 -27.4102 -33.2117 -33.1365C-33.2106 -38.8628 -37.8733 -43.5216 -43.6055 -43.5216ZM-43.6055 -27.3622C-46.7919 -27.3622 -49.3855 -29.9527 -49.3855 -33.1365C-49.3855 -36.3202 -46.7919 -38.9096 -43.6055 -38.9096C-40.4181 -38.9096 -37.8275 -36.3202 -37.8275 -33.1365C-37.8275 -29.9517 -40.4181 -27.3622 -43.6055 -27.3622Z" fill="url(#paint60_linear_3394_242398)"/>
<path fill-rule="evenodd" clip-rule="evenodd" d="M199.538 -0.0175476L159.145 -29.035L118.749 -0.0109901L159.141 29.0065L199.538 -0.0175476Z" fill="url(#paint61_linear_3394_242398)"/>
<path fill-rule="evenodd" clip-rule="evenodd" d="M334.594 -0.0299263L294.201 -29.0474L253.805 -0.0233727L294.197 28.9941L334.594 -0.0299263Z" fill="url(#paint62_linear_3394_242398)"/>
<path fill-rule="evenodd" clip-rule="evenodd" d="M469.647 -0.0268631L429.254 -29.0444L388.858 -0.0203056L429.25 28.9972L469.647 -0.0268631Z" fill="url(#paint63_linear_3394_242398)"/>
<path fill-rule="evenodd" clip-rule="evenodd" d="M469.647 -0.0268631L429.254 -29.0444L388.858 -0.0203056L429.25 28.9972L469.647 -0.0268631Z" fill="url(#paint64_linear_3394_242398)"/>
<path d="M91.6542 22.6939C85.9231 22.6939 81.2615 27.3506 81.2615 33.078C81.2615 38.8043 85.9231 43.4632 91.6542 43.4632C97.3864 43.4632 102.048 38.8054 102.048 33.078C102.049 27.3506 97.3864 22.6939 91.6542 22.6939ZM91.6542 38.8512C88.4679 38.8512 85.8741 36.2617 85.8741 33.078C85.8741 29.8965 88.4679 27.3059 91.6542 27.3059C94.8417 27.3059 97.4321 29.8954 97.4321 33.078C97.4321 36.2617 94.8417 38.8512 91.6542 38.8512Z" fill="url(#paint65_linear_3394_242398)"/>
<path d="M91.5835 -43.5156C85.8524 -43.5156 81.1908 -38.8578 81.1908 -33.1304C81.1908 -27.4041 85.8524 -22.7442 91.5835 -22.7442C97.3157 -22.7442 101.977 -27.4041 101.977 -33.1304C101.978 -38.8567 97.3157 -43.5156 91.5835 -43.5156ZM91.5835 -27.3562C88.3972 -27.3562 85.8033 -29.9467 85.8033 -33.1304C85.8033 -36.3141 88.3972 -38.9036 91.5835 -38.9036C94.771 -38.9036 97.3613 -36.3141 97.3613 -33.1304C97.3613 -29.9457 94.771 -27.3562 91.5835 -27.3562Z" fill="url(#paint66_linear_3394_242398)"/>
<path d="M226.688 22.5166C220.957 22.5166 216.296 27.1733 216.296 32.9007C216.296 38.627 220.957 43.2859 226.688 43.2859C232.42 43.2859 237.082 38.6281 237.082 32.9007C237.083 27.1733 232.42 22.5166 226.688 22.5166ZM226.688 38.6739C223.502 38.6739 220.908 36.0844 220.908 32.9007C220.908 29.7192 223.502 27.1287 226.688 27.1287C229.876 27.1287 232.466 29.7181 232.466 32.9007C232.466 36.0844 229.876 38.6739 226.688 38.6739Z" fill="url(#paint67_linear_3394_242398)"/>
<path d="M226.688 -43.5047C220.957 -43.5047 216.296 -38.8468 216.296 -33.1195C216.296 -27.3932 220.957 -22.7332 226.688 -22.7332C232.42 -22.7332 237.082 -27.3932 237.082 -33.1195C237.083 -38.8458 232.42 -43.5047 226.688 -43.5047ZM226.688 -27.3452C223.502 -27.3452 220.908 -29.9358 220.908 -33.1195C220.908 -36.3032 223.502 -38.8926 226.688 -38.8926C229.876 -38.8926 232.466 -36.3032 232.466 -33.1195C232.466 -29.9347 229.876 -27.3452 226.688 -27.3452Z" fill="url(#paint68_linear_3394_242398)"/>
<path d="M91.6409 -5.43261L98.833 0.00776291L91.5923 5.41096L84.4025 -0.0271912L91.6409 -5.43261Z" fill="url(#paint69_linear_3394_242398)"/>
<path d="M24.0863 -43.3476C27.8885 -46.0696 24.6592 -42.9365 21.9681 -44.869C22.6742 -44.3619 23.3802 -43.8547 24.0863 -43.3476C24.068 -43.3344 24.0494 -43.3211 24.0306 -43.3077C21.5885 -41.5545 19.1508 -39.8035 16.7129 -38.0513C8.92273 -32.4548 1.13562 -26.8615 -6.65247 -21.266C-16.5105 -14.1851 -26.3663 -7.10263 -36.2236 -0.0219193C-37.9564 -1.26651 -39.6892 -2.51109 -41.422 -3.75568V3.71185C-39.6891 2.46733 -37.9564 1.22273 -36.2236 -0.0219193C-16.1205 14.4174 3.98218 28.8575 24.0863 43.2968C20.286 46.0194 23.5135 42.8862 26.2042 44.8178C25.4983 44.3108 24.7922 43.8038 24.0863 43.2968C24.105 43.2834 24.1239 43.2699 24.1428 43.2563C26.5828 41.503 29.0239 39.752 31.4606 37.9999C39.2509 32.4066 47.0377 26.8111 54.8291 21.2168C64.6863 14.1349 74.5443 7.05378 84.4025 -0.0271912L91.5923 5.41096C69.8185 21.052 48.0448 36.692 26.271 52.3331C25.1328 53.1508 23.0406 53.1508 21.9025 52.3331C-0.662842 36.1267 -23.2247 19.9182 -45.79 3.71076C-48.5553 1.72313 -48.5553 -1.76804 -45.79 -3.75676C-23.2247 -19.9653 -0.662842 -36.1771 21.9025 -52.3867C23.0406 -53.2044 25.1328 -53.2044 26.271 -52.3867C48.061 -36.734 69.8508 -21.0823 91.6409 -5.43261L84.4025 -0.0271912C64.2968 -14.4675 44.1912 -28.9072 24.0863 -43.3476Z" fill="url(#paint70_linear_3394_242398)"/>
<path d="M361.834 22.6976C356.103 22.6976 351.441 27.3543 351.441 33.0816C351.441 38.808 356.103 43.4668 361.834 43.4668C367.566 43.4668 372.227 38.809 372.227 33.0816C372.228 27.3543 367.566 22.6976 361.834 22.6976ZM361.834 38.8548C358.647 38.8548 356.054 36.2654 356.054 33.0816C356.054 29.9001 358.647 27.3096 361.834 27.3096C365.021 27.3096 367.612 29.899 367.612 33.0816C367.612 36.2654 365.021 38.8548 361.834 38.8548Z" fill="url(#paint71_linear_3394_242398)"/>
<path d="M361.807 -43.4933C356.076 -43.4933 351.414 -38.8355 351.414 -33.1081C351.414 -27.3818 356.076 -22.7218 361.807 -22.7218C367.539 -22.7218 372.201 -27.3818 372.201 -33.1081C372.202 -38.8344 367.539 -43.4933 361.807 -43.4933ZM361.807 -27.3338C358.621 -27.3338 356.027 -29.9244 356.027 -33.1081C356.027 -36.2918 358.621 -38.8813 361.807 -38.8813C364.995 -38.8813 367.585 -36.2918 367.585 -33.1081C367.585 -29.9233 364.995 -27.3338 361.807 -27.3338Z" fill="url(#paint72_linear_3394_242398)"/>
<path d="M361.722 5.41117L354.512 -0.0124207L361.727 -5.43516L368.939 -0.00933456L361.722 5.41117Z" fill="url(#paint73_linear_3394_242398)"/>
<path d="M159.087 -43.278C156.645 -41.5248 154.207 -39.7738 151.769 -38.0217C143.979 -32.4251 136.192 -26.8318 128.404 -21.2363C118.546 -14.1554 108.69 -7.07294 98.833 0.00776291L91.6409 -5.43261C113.415 -21.0728 135.185 -36.716 156.959 -52.357C158.097 -53.1748 160.189 -53.1748 161.327 -52.357C183.107 -36.7122 204.885 -21.0683 226.665 -5.42643C225.883 -4.86494 220.241 -0.558994 219.459 0.00248337C199.353 -14.4379 179.248 -28.8775 159.143 -43.3179C162.945 -46.0399 159.716 -42.9068 157.025 -44.8393L159.143 -43.3179L159.087 -43.278Z" fill="url(#paint74_linear_3394_242398)"/>
<path d="M226.678 5.41954C225.892 4.85487 220.245 0.567146 219.459 0.00248337C220.241 -0.558994 225.883 -4.86494 226.665 -5.42643C227.957 -4.49852 232.594 -0.935059 233.886 -0.00714111C233.246 0.452839 231.767 1.57753 230.287 2.70287L230.285 2.70436L230.278 2.70904L230.278 2.7097L230.276 2.71072L230.274 2.7127L226.678 5.41954Z" fill="url(#paint75_linear_3394_242398)"/>
<path d="M294.14 -43.2929C291.698 -41.5397 289.26 -39.7887 286.823 -38.0366C279.032 -32.44 271.245 -26.8467 263.457 -21.2513C253.599 -14.1703 243.744 -7.08785 233.886 -0.00714111C232.594 -0.935059 227.957 -4.49852 226.665 -5.42643C248.448 -21.0737 270.229 -36.7238 292.012 -52.3719C293.15 -53.1897 295.243 -53.1897 296.381 -52.3719C318.163 -36.725 339.945 -21.0791 361.727 -5.43516L354.512 -0.0124207L334.535 -14.3601C321.089 -24.0176 307.642 -33.675 294.196 -43.3328C297.998 -46.0548 294.769 -42.9217 292.078 -44.8542L294.196 -43.3328L294.14 -43.2929Z" fill="url(#paint76_linear_3394_242398)"/>
<path d="M429.193 -43.2951C426.751 -41.5419 424.313 -39.7909 421.875 -38.0387C414.085 -32.4422 406.298 -26.8489 398.51 -21.2534C388.652 -14.1725 378.796 -7.09005 368.939 -0.00933456L361.727 -5.43516C383.507 -21.0802 405.284 -36.7282 427.065 -52.3741C428.203 -53.1918 430.295 -53.1918 431.433 -52.3741C453.147 -36.7765 474.86 -21.1799 496.573 -5.58521L495.452 -4.69419L489.565 -0.0146103L469.005 -14.7813C455.752 -24.2991 442.5 -33.8169 429.249 -43.335C433.051 -46.057 429.822 -42.9239 427.131 -44.8564L429.249 -43.335L429.193 -43.2951Z" fill="url(#paint77_linear_3394_242398)"/>
<path d="M429.305 43.2688C431.745 41.5156 434.186 39.7646 436.623 38.0125C444.413 32.4192 452.2 26.8237 459.991 21.2293C469.849 14.1475 479.707 7.06636 489.565 -0.0146103L495.756 4.9145L496.566 5.55905C474.855 21.1549 453.144 36.7498 431.433 52.3457C430.295 53.1634 428.203 53.1634 427.065 52.3457C405.283 36.7019 383.504 21.0561 361.722 5.41117L368.939 -0.00933456L391.511 16.2036C404.09 25.2389 416.669 34.2743 429.249 43.3093C425.448 46.032 428.676 42.8988 431.366 44.8303L429.249 43.3093L429.305 43.2688Z" fill="url(#paint78_linear_3394_242398)"/>
<path d="M-41.422 3.71185V-3.75568L-36.2236 -0.0219193L-41.422 3.71185Z" fill="url(#paint79_linear_3394_242398)"/>
<path d="M24.0863 43.2968C20.286 46.0194 23.5135 42.8862 26.2042 44.8178L24.0863 43.2968Z" fill="url(#paint80_linear_3394_242398)"/>
<path d="M159.199 43.2859C161.639 41.5327 164.08 39.7817 166.517 38.0296C174.307 32.4363 182.094 26.8408 189.886 21.2464C199.743 14.1646 209.601 7.08346 219.459 0.00248337C220.245 0.567146 225.892 4.85487 226.678 5.41954C204.895 21.0676 183.111 36.7147 161.327 52.3628C160.189 53.1805 158.097 53.1805 156.959 52.3628C135.169 36.7132 113.382 21.0616 91.5923 5.41096L98.833 0.00776291L121.451 16.2536L122.633 17.1029C134.803 25.8441 146.973 34.5854 159.143 43.3264C155.343 46.0491 158.57 42.9159 161.261 44.8474L159.143 43.3264L159.199 43.2859Z" fill="url(#paint81_linear_3394_242398)"/>
<path d="M159.143 43.3264C155.343 46.0491 158.57 42.9159 161.261 44.8474L159.143 43.3264Z" fill="url(#paint82_linear_3394_242398)"/>
<path fill-rule="evenodd" clip-rule="evenodd" d="M294.196 43.3115C282.046 34.5852 269.897 25.8586 257.748 17.132L256.631 16.33C269.153 25.3239 281.674 34.3179 294.196 43.3115ZM230.278 2.70904L230.278 2.7097L230.276 2.71072L230.278 2.70904Z" fill="url(#paint83_linear_3394_242398)"/>
<path d="M294.196 43.3115C290.396 46.0342 293.623 42.901 296.314 44.8326L294.196 43.3115Z" fill="url(#paint84_linear_3394_242398)"/>
<path d="M294.253 43.271C296.693 41.5178 299.134 39.7668 301.57 38.0147C309.361 32.4214 317.148 26.8259 324.939 21.2315C334.796 14.1497 344.654 7.06855 354.512 -0.0124207L361.722 5.41117C339.942 21.057 318.161 36.7019 296.381 52.3478C295.243 53.1656 293.15 53.1656 292.012 52.3478C270.233 36.7061 248.457 21.0624 226.678 5.41954C227.318 4.96003 228.795 3.83699 230.274 2.7127L230.276 2.71072L230.278 2.7097L230.278 2.70904L230.285 2.70436L230.287 2.70287L233.886 -0.00714111L256.631 16.33L257.748 17.132C269.897 25.8586 282.046 34.5852 294.196 43.3115C290.396 46.0342 293.623 42.901 296.314 44.8326L294.196 43.3115L294.253 43.271Z" fill="url(#paint85_linear_3394_242398)"/>
<path d="M429.249 43.3093C425.448 46.032 428.676 42.8988 431.366 44.8303L429.249 43.3093Z" fill="url(#paint86_linear_3394_242398)"/>
<path d="M496.608 5.52622C496.324 5.32232 496.04 5.11841 495.756 4.9145L489.565 -0.0146103L495.452 -4.69419C495.845 -4.97625 496.238 -5.25832 496.63 -5.54038L500.127 -2.79153C500.129 -2.79025 500.13 -2.78901 500.132 -2.78773C501.474 -1.70337 502.815 -0.619522 503.68 0.00203323C502.814 0.624111 501.47 1.70163 500.125 2.77931L500.12 2.78313L496.608 5.52622Z" fill="url(#paint87_linear_3394_242398)"/>
<path d="M563.935 -43.2838C561.493 -41.5305 559.055 -39.7795 556.617 -38.0274L547.086 -31.1808C542.474 -27.8679 537.863 -24.5554 533.252 -21.2421C523.394 -14.1612 513.538 -7.07868 503.68 0.00203323L500.132 -2.78773L500.127 -2.79153C498.814 -3.85242 497.5 -4.91387 496.633 -5.54223C518.358 -21.1479 540.081 -36.7563 561.807 -52.3628C562.945 -53.1805 565.037 -53.1805 566.175 -52.3628C587.965 -36.71 609.755 -21.0583 631.545 -5.40866L624.306 -0.00323868L604.708 -14.079C591.135 -23.8272 577.563 -33.5752 563.99 -43.3237C567.793 -46.0456 564.563 -42.9126 561.872 -44.8451L563.99 -43.3237L563.935 -43.2838Z" fill="url(#paint88_linear_3394_242398)"/>
<path d="M564.047 43.2802C566.487 41.527 568.928 39.776 571.365 38.0238C579.155 32.4305 586.942 26.8351 594.733 21.2407C604.59 14.1588 614.448 7.07774 624.306 -0.00323868L631.496 5.43491L600.092 27.9937C588.786 36.1147 577.481 44.2357 566.175 52.357C565.037 53.1748 562.945 53.1748 561.807 52.357C540.073 36.7482 518.343 21.1374 496.61 5.52751C497.477 4.90131 498.798 3.84239 500.12 2.78313L500.125 2.77931L503.68 0.00203323L525.298 15.5298C538.195 24.7935 551.093 34.0573 563.99 43.3207C560.19 46.0434 563.418 42.9101 566.108 44.8417L563.99 43.3207L564.047 43.2802Z" fill="url(#paint89_linear_3394_242398)"/>
<defs>
<linearGradient id="paint0_linear_3394_242398" x1="1587" y1="0" x2="-54" y2="0" gradientUnits="userSpaceOnUse">
<stop offset="0.216002" stop-color="#DFF6E7" stop-opacity="0"/>
<stop offset="0.855923" stop-color="#DFF6E7"/>
</linearGradient>
<linearGradient id="paint1_linear_3394_242398" x1="1587" y1="0" x2="-54" y2="0" gradientUnits="userSpaceOnUse">
<stop offset="0.216002" stop-color="#DFF6E7" stop-opacity="0"/>
<stop offset="0.855923" stop-color="#DFF6E7"/>
</linearGradient>
<linearGradient id="paint2_linear_3394_242398" x1="1587" y1="0" x2="-54" y2="0" gradientUnits="userSpaceOnUse">
<stop offset="0.216002" stop-color="#DFF6E7" stop-opacity="0"/>
<stop offset="0.855923" stop-color="#DFF6E7"/>
</linearGradient>
<linearGradient id="paint3_linear_3394_242398" x1="1587" y1="0" x2="-54" y2="0" gradientUnits="userSpaceOnUse">
<stop offset="0.216002" stop-color="#DFF6E7" stop-opacity="0"/>
<stop offset="0.855923" stop-color="#DFF6E7"/>
</linearGradient>
<linearGradient id="paint4_linear_3394_242398" x1="1587" y1="0" x2="-54" y2="0" gradientUnits="userSpaceOnUse">
<stop offset="0.216002" stop-color="#DFF6E7" stop-opacity="0"/>
<stop offset="0.855923" stop-color="#DFF6E7"/>
</linearGradient>
<linearGradient id="paint5_linear_3394_242398" x1="1587" y1="0" x2="-54" y2="0" gradientUnits="userSpaceOnUse">
<stop offset="0.216002" stop-color="#DFF6E7" stop-opacity="0"/>
<stop offset="0.855923" stop-color="#DFF6E7"/>
</linearGradient>
<linearGradient id="paint6_linear_3394_242398" x1="1587" y1="0" x2="-54" y2="0" gradientUnits="userSpaceOnUse">
<stop offset="0.216002" stop-color="#DFF6E7" stop-opacity="0"/>
<stop offset="0.855923" stop-color="#DFF6E7"/>
</linearGradient>
<linearGradient id="paint7_linear_3394_242398" x1="1587" y1="0" x2="-54" y2="0" gradientUnits="userSpaceOnUse">
<stop offset="0.216002" stop-color="#DFF6E7" stop-opacity="0"/>
<stop offset="0.855923" stop-color="#DFF6E7"/>
</linearGradient>
<linearGradient id="paint8_linear_3394_242398" x1="1587" y1="0" x2="-54" y2="0" gradientUnits="userSpaceOnUse">
<stop offset="0.216002" stop-color="#DFF6E7" stop-opacity="0"/>
<stop offset="0.855923" stop-color="#DFF6E7"/>
</linearGradient>
<linearGradient id="paint9_linear_3394_242398" x1="1587" y1="0" x2="-54" y2="0" gradientUnits="userSpaceOnUse">
<stop offset="0.216002" stop-color="#DFF6E7" stop-opacity="0"/>
<stop offset="0.855923" stop-color="#DFF6E7"/>
</linearGradient>
<linearGradient id="paint10_linear_3394_242398" x1="1587" y1="0" x2="-54" y2="0" gradientUnits="userSpaceOnUse">
<stop offset="0.216002" stop-color="#DFF6E7" stop-opacity="0"/>
<stop offset="0.855923" stop-color="#DFF6E7"/>
</linearGradient>
<linearGradient id="paint11_linear_3394_242398" x1="1587" y1="0" x2="-54" y2="0" gradientUnits="userSpaceOnUse">
<stop offset="0.216002" stop-color="#DFF6E7" stop-opacity="0"/>
<stop offset="0.855923" stop-color="#DFF6E7"/>
</linearGradient>
<linearGradient id="paint12_linear_3394_242398" x1="1587" y1="0" x2="-54" y2="0" gradientUnits="userSpaceOnUse">
<stop offset="0.216002" stop-color="#DFF6E7" stop-opacity="0"/>
<stop offset="0.855923" stop-color="#DFF6E7"/>
</linearGradient>
<linearGradient id="paint13_linear_3394_242398" x1="1587" y1="0" x2="-54" y2="0" gradientUnits="userSpaceOnUse">
<stop offset="0.216002" stop-color="#DFF6E7" stop-opacity="0"/>
<stop offset="0.855923" stop-color="#DFF6E7"/>
</linearGradient>
<linearGradient id="paint14_linear_3394_242398" x1="1587" y1="0" x2="-54" y2="0" gradientUnits="userSpaceOnUse">
<stop offset="0.216002" stop-color="#DFF6E7" stop-opacity="0"/>
<stop offset="0.855923" stop-color="#DFF6E7"/>
</linearGradient>
<linearGradient id="paint15_linear_3394_242398" x1="1587" y1="0" x2="-54" y2="0" gradientUnits="userSpaceOnUse">
<stop offset="0.216002" stop-color="#DFF6E7" stop-opacity="0"/>
<stop offset="0.855923" stop-color="#DFF6E7"/>
</linearGradient>
<linearGradient id="paint16_linear_3394_242398" x1="1587" y1="0" x2="-54" y2="0" gradientUnits="userSpaceOnUse">
<stop offset="0.216002" stop-color="#DFF6E7" stop-opacity="0"/>
<stop offset="0.855923" stop-color="#DFF6E7"/>
</linearGradient>
<linearGradient id="paint17_linear_3394_242398" x1="1587" y1="0" x2="-54" y2="0" gradientUnits="userSpaceOnUse">
<stop offset="0.216002" stop-color="#DFF6E7" stop-opacity="0"/>
<stop offset="0.855923" stop-color="#DFF6E7"/>
</linearGradient>
<linearGradient id="paint18_linear_3394_242398" x1="1587" y1="0" x2="-54" y2="0" gradientUnits="userSpaceOnUse">
<stop offset="0.216002" stop-color="#DFF6E7" stop-opacity="0"/>
<stop offset="0.855923" stop-color="#DFF6E7"/>
</linearGradient>
<linearGradient id="paint19_linear_3394_242398" x1="1587" y1="0" x2="-54" y2="0" gradientUnits="userSpaceOnUse">
<stop offset="0.216002" stop-color="#DFF6E7" stop-opacity="0"/>
<stop offset="0.855923" stop-color="#DFF6E7"/>
</linearGradient>
<linearGradient id="paint20_linear_3394_242398" x1="1587" y1="0" x2="-54" y2="0" gradientUnits="userSpaceOnUse">
<stop offset="0.216002" stop-color="#DFF6E7" stop-opacity="0"/>
<stop offset="0.855923" stop-color="#DFF6E7"/>
</linearGradient>
<linearGradient id="paint21_linear_3394_242398" x1="1587" y1="0" x2="-54" y2="0" gradientUnits="userSpaceOnUse">
<stop offset="0.216002" stop-color="#DFF6E7" stop-opacity="0"/>
<stop offset="0.855923" stop-color="#DFF6E7"/>
</linearGradient>
<linearGradient id="paint22_linear_3394_242398" x1="1587" y1="0" x2="-54" y2="0" gradientUnits="userSpaceOnUse">
<stop offset="0.216002" stop-color="#DFF6E7" stop-opacity="0"/>
<stop offset="0.855923" stop-color="#DFF6E7"/>
</linearGradient>
<linearGradient id="paint23_linear_3394_242398" x1="1587" y1="0" x2="-54" y2="0" gradientUnits="userSpaceOnUse">
<stop offset="0.216002" stop-color="#DFF6E7" stop-opacity="0"/>
<stop offset="0.855923" stop-color="#DFF6E7"/>
</linearGradient>
<linearGradient id="paint24_linear_3394_242398" x1="1587" y1="0" x2="-54" y2="0" gradientUnits="userSpaceOnUse">
<stop offset="0.216002" stop-color="#DFF6E7" stop-opacity="0"/>
<stop offset="0.855923" stop-color="#DFF6E7"/>
</linearGradient>
<linearGradient id="paint25_linear_3394_242398" x1="1587" y1="0" x2="-54" y2="0" gradientUnits="userSpaceOnUse">
<stop offset="0.216002" stop-color="#DFF6E7" stop-opacity="0"/>
<stop offset="0.855923" stop-color="#DFF6E7"/>
</linearGradient>
<linearGradient id="paint26_linear_3394_242398" x1="1587" y1="0" x2="-54" y2="0" gradientUnits="userSpaceOnUse">
<stop offset="0.216002" stop-color="#DFF6E7" stop-opacity="0"/>
<stop offset="0.855923" stop-color="#DFF6E7"/>
</linearGradient>
<linearGradient id="paint27_linear_3394_242398" x1="1587" y1="0" x2="-54" y2="0" gradientUnits="userSpaceOnUse">
<stop offset="0.216002" stop-color="#DFF6E7" stop-opacity="0"/>
<stop offset="0.855923" stop-color="#DFF6E7"/>
</linearGradient>
<linearGradient id="paint28_linear_3394_242398" x1="1587" y1="0" x2="-54" y2="0" gradientUnits="userSpaceOnUse">
<stop offset="0.216002" stop-color="#DFF6E7" stop-opacity="0"/>
<stop offset="0.855923" stop-color="#DFF6E7"/>
</linearGradient>
<linearGradient id="paint29_linear_3394_242398" x1="1587" y1="0" x2="-54" y2="0" gradientUnits="userSpaceOnUse">
<stop offset="0.216002" stop-color="#DFF6E7" stop-opacity="0"/>
<stop offset="0.855923" stop-color="#DFF6E7"/>
</linearGradient>
<linearGradient id="paint30_linear_3394_242398" x1="1587" y1="0" x2="-54" y2="0" gradientUnits="userSpaceOnUse">
<stop offset="0.216002" stop-color="#DFF6E7" stop-opacity="0"/>
<stop offset="0.855923" stop-color="#DFF6E7"/>
</linearGradient>
<linearGradient id="paint31_linear_3394_242398" x1="1587" y1="0" x2="-54" y2="0" gradientUnits="userSpaceOnUse">
<stop offset="0.216002" stop-color="#DFF6E7" stop-opacity="0"/>
<stop offset="0.855923" stop-color="#DFF6E7"/>
</linearGradient>
<linearGradient id="paint32_linear_3394_242398" x1="1587" y1="0" x2="-54" y2="0" gradientUnits="userSpaceOnUse">
<stop offset="0.216002" stop-color="#DFF6E7" stop-opacity="0"/>
<stop offset="0.855923" stop-color="#DFF6E7"/>
</linearGradient>
<linearGradient id="paint33_linear_3394_242398" x1="1587" y1="0" x2="-54" y2="0" gradientUnits="userSpaceOnUse">
<stop offset="0.216002" stop-color="#DFF6E7" stop-opacity="0"/>
<stop offset="0.855923" stop-color="#DFF6E7"/>
</linearGradient>
<linearGradient id="paint34_linear_3394_242398" x1="1587" y1="0" x2="-54" y2="0" gradientUnits="userSpaceOnUse">
<stop offset="0.216002" stop-color="#DFF6E7" stop-opacity="0"/>
<stop offset="0.855923" stop-color="#DFF6E7"/>
</linearGradient>
<linearGradient id="paint35_linear_3394_242398" x1="1587" y1="0" x2="-54" y2="0" gradientUnits="userSpaceOnUse">
<stop offset="0.216002" stop-color="#DFF6E7" stop-opacity="0"/>
<stop offset="0.855923" stop-color="#DFF6E7"/>
</linearGradient>
<linearGradient id="paint36_linear_3394_242398" x1="1587" y1="0" x2="-54" y2="0" gradientUnits="userSpaceOnUse">
<stop offset="0.216002" stop-color="#DFF6E7" stop-opacity="0"/>
<stop offset="0.855923" stop-color="#DFF6E7"/>
</linearGradient>
<linearGradient id="paint37_linear_3394_242398" x1="1587" y1="0" x2="-54" y2="0" gradientUnits="userSpaceOnUse">
<stop offset="0.216002" stop-color="#DFF6E7" stop-opacity="0"/>
<stop offset="0.855923" stop-color="#DFF6E7"/>
</linearGradient>
<linearGradient id="paint38_linear_3394_242398" x1="1587" y1="0" x2="-54" y2="0" gradientUnits="userSpaceOnUse">
<stop offset="0.216002" stop-color="#DFF6E7" stop-opacity="0"/>
<stop offset="0.855923" stop-color="#DFF6E7"/>
</linearGradient>
<linearGradient id="paint39_linear_3394_242398" x1="1587" y1="0" x2="-54" y2="0" gradientUnits="userSpaceOnUse">
<stop offset="0.216002" stop-color="#DFF6E7" stop-opacity="0"/>
<stop offset="0.855923" stop-color="#DFF6E7"/>
</linearGradient>
<linearGradient id="paint40_linear_3394_242398" x1="1587" y1="0" x2="-54" y2="0" gradientUnits="userSpaceOnUse">
<stop offset="0.216002" stop-color="#DFF6E7" stop-opacity="0"/>
<stop offset="0.855923" stop-color="#DFF6E7"/>
</linearGradient>
<linearGradient id="paint41_linear_3394_242398" x1="1587" y1="0" x2="-54" y2="0" gradientUnits="userSpaceOnUse">
<stop offset="0.216002" stop-color="#DFF6E7" stop-opacity="0"/>
<stop offset="0.855923" stop-color="#DFF6E7"/>
</linearGradient>
<linearGradient id="paint42_linear_3394_242398" x1="1587" y1="0" x2="-54" y2="0" gradientUnits="userSpaceOnUse">
<stop offset="0.216002" stop-color="#DFF6E7" stop-opacity="0"/>
<stop offset="0.855923" stop-color="#DFF6E7"/>
</linearGradient>
<linearGradient id="paint43_linear_3394_242398" x1="1587" y1="0" x2="-54" y2="0" gradientUnits="userSpaceOnUse">
<stop offset="0.216002" stop-color="#DFF6E7" stop-opacity="0"/>
<stop offset="0.855923" stop-color="#DFF6E7"/>
</linearGradient>
<linearGradient id="paint44_linear_3394_242398" x1="1587" y1="0" x2="-54" y2="0" gradientUnits="userSpaceOnUse">
<stop offset="0.216002" stop-color="#DFF6E7" stop-opacity="0"/>
<stop offset="0.855923" stop-color="#DFF6E7"/>
</linearGradient>
<linearGradient id="paint45_linear_3394_242398" x1="1587" y1="0" x2="-54" y2="0" gradientUnits="userSpaceOnUse">
<stop offset="0.216002" stop-color="#DFF6E7" stop-opacity="0"/>
<stop offset="0.855923" stop-color="#DFF6E7"/>
</linearGradient>
<linearGradient id="paint46_linear_3394_242398" x1="1587" y1="0" x2="-54" y2="0" gradientUnits="userSpaceOnUse">
<stop offset="0.216002" stop-color="#DFF6E7" stop-opacity="0"/>
<stop offset="0.855923" stop-color="#DFF6E7"/>
</linearGradient>
<linearGradient id="paint47_linear_3394_242398" x1="1587" y1="0" x2="-54" y2="0" gradientUnits="userSpaceOnUse">
<stop offset="0.216002" stop-color="#DFF6E7" stop-opacity="0"/>
<stop offset="0.855923" stop-color="#DFF6E7"/>
</linearGradient>
<linearGradient id="paint48_linear_3394_242398" x1="1587" y1="0" x2="-54" y2="0" gradientUnits="userSpaceOnUse">
<stop offset="0.216002" stop-color="#DFF6E7" stop-opacity="0"/>
<stop offset="0.855923" stop-color="#DFF6E7"/>
</linearGradient>
<linearGradient id="paint49_linear_3394_242398" x1="1587" y1="0" x2="-54" y2="0" gradientUnits="userSpaceOnUse">
<stop offset="0.216002" stop-color="#DFF6E7" stop-opacity="0"/>
<stop offset="0.855923" stop-color="#DFF6E7"/>
</linearGradient>
<linearGradient id="paint50_linear_3394_242398" x1="1587" y1="0" x2="-54" y2="0" gradientUnits="userSpaceOnUse">
<stop offset="0.216002" stop-color="#DFF6E7" stop-opacity="0"/>
<stop offset="0.855923" stop-color="#DFF6E7"/>
</linearGradient>
<linearGradient id="paint51_linear_3394_242398" x1="1587" y1="0" x2="-54" y2="0" gradientUnits="userSpaceOnUse">
<stop offset="0.216002" stop-color="#DFF6E7" stop-opacity="0"/>
<stop offset="0.855923" stop-color="#DFF6E7"/>
</linearGradient>
<linearGradient id="paint52_linear_3394_242398" x1="1587" y1="0" x2="-54" y2="0" gradientUnits="userSpaceOnUse">
<stop offset="0.216002" stop-color="#DFF6E7" stop-opacity="0"/>
<stop offset="0.855923" stop-color="#DFF6E7"/>
</linearGradient>
<linearGradient id="paint53_linear_3394_242398" x1="1587" y1="0" x2="-54" y2="0" gradientUnits="userSpaceOnUse">
<stop offset="0.216002" stop-color="#DFF6E7" stop-opacity="0"/>
<stop offset="0.855923" stop-color="#DFF6E7"/>
</linearGradient>
<linearGradient id="paint54_linear_3394_242398" x1="1587" y1="0" x2="-54" y2="0" gradientUnits="userSpaceOnUse">
<stop offset="0.216002" stop-color="#DFF6E7" stop-opacity="0"/>
<stop offset="0.855923" stop-color="#DFF6E7"/>
</linearGradient>
<linearGradient id="paint55_linear_3394_242398" x1="1587" y1="0" x2="-54" y2="0" gradientUnits="userSpaceOnUse">
<stop offset="0.216002" stop-color="#DFF6E7" stop-opacity="0"/>
<stop offset="0.855923" stop-color="#DFF6E7"/>
</linearGradient>
<linearGradient id="paint56_linear_3394_242398" x1="1587" y1="0" x2="-54" y2="0" gradientUnits="userSpaceOnUse">
<stop offset="0.216002" stop-color="#DFF6E7" stop-opacity="0"/>
<stop offset="0.855923" stop-color="#DFF6E7"/>
</linearGradient>
<linearGradient id="paint57_linear_3394_242398" x1="1587" y1="0" x2="-54" y2="0" gradientUnits="userSpaceOnUse">
<stop offset="0.216002" stop-color="#DFF6E7" stop-opacity="0"/>
<stop offset="0.855923" stop-color="#DFF6E7"/>
</linearGradient>
<linearGradient id="paint58_linear_3394_242398" x1="1587" y1="0" x2="-54" y2="0" gradientUnits="userSpaceOnUse">
<stop offset="0.216002" stop-color="#DFF6E7" stop-opacity="0"/>
<stop offset="0.855923" stop-color="#DFF6E7"/>
</linearGradient>
<linearGradient id="paint59_linear_3394_242398" x1="1587" y1="0" x2="-54" y2="0" gradientUnits="userSpaceOnUse">
<stop offset="0.216002" stop-color="#DFF6E7" stop-opacity="0"/>
<stop offset="0.855923" stop-color="#DFF6E7"/>
</linearGradient>
<linearGradient id="paint60_linear_3394_242398" x1="1587" y1="0" x2="-54" y2="0" gradientUnits="userSpaceOnUse">
<stop offset="0.216002" stop-color="#DFF6E7" stop-opacity="0"/>
<stop offset="0.855923" stop-color="#DFF6E7"/>
</linearGradient>
<linearGradient id="paint61_linear_3394_242398" x1="1587" y1="0" x2="-54" y2="0" gradientUnits="userSpaceOnUse">
<stop offset="0.216002" stop-color="#DFF6E7" stop-opacity="0"/>
<stop offset="0.855923" stop-color="#DFF6E7"/>
</linearGradient>
<linearGradient id="paint62_linear_3394_242398" x1="1587" y1="0" x2="-54" y2="0" gradientUnits="userSpaceOnUse">
<stop offset="0.216002" stop-color="#DFF6E7" stop-opacity="0"/>
<stop offset="0.855923" stop-color="#DFF6E7"/>
</linearGradient>
<linearGradient id="paint63_linear_3394_242398" x1="1587" y1="0" x2="-54" y2="0" gradientUnits="userSpaceOnUse">
<stop offset="0.216002" stop-color="#DFF6E7" stop-opacity="0"/>
<stop offset="0.855923" stop-color="#DFF6E7"/>
</linearGradient>
<linearGradient id="paint64_linear_3394_242398" x1="1587" y1="0" x2="-54" y2="0" gradientUnits="userSpaceOnUse">
<stop offset="0.216002" stop-color="#DFF6E7" stop-opacity="0"/>
<stop offset="0.855923" stop-color="#DFF6E7"/>
</linearGradient>
<linearGradient id="paint65_linear_3394_242398" x1="1587" y1="0" x2="-54" y2="0" gradientUnits="userSpaceOnUse">
<stop offset="0.216002" stop-color="#DFF6E7" stop-opacity="0"/>
<stop offset="0.855923" stop-color="#DFF6E7"/>
</linearGradient>
<linearGradient id="paint66_linear_3394_242398" x1="1587" y1="0" x2="-54" y2="0" gradientUnits="userSpaceOnUse">
<stop offset="0.216002" stop-color="#DFF6E7" stop-opacity="0"/>
<stop offset="0.855923" stop-color="#DFF6E7"/>
</linearGradient>
<linearGradient id="paint67_linear_3394_242398" x1="1587" y1="0" x2="-54" y2="0" gradientUnits="userSpaceOnUse">
<stop offset="0.216002" stop-color="#DFF6E7" stop-opacity="0"/>
<stop offset="0.855923" stop-color="#DFF6E7"/>
</linearGradient>
<linearGradient id="paint68_linear_3394_242398" x1="1587" y1="0" x2="-54" y2="0" gradientUnits="userSpaceOnUse">
<stop offset="0.216002" stop-color="#DFF6E7" stop-opacity="0"/>
<stop offset="0.855923" stop-color="#DFF6E7"/>
</linearGradient>
<linearGradient id="paint69_linear_3394_242398" x1="1587" y1="0" x2="-54" y2="0" gradientUnits="userSpaceOnUse">
<stop offset="0.216002" stop-color="#DFF6E7" stop-opacity="0"/>
<stop offset="0.855923" stop-color="#DFF6E7"/>
</linearGradient>
<linearGradient id="paint70_linear_3394_242398" x1="1587" y1="0" x2="-54" y2="0" gradientUnits="userSpaceOnUse">
<stop offset="0.216002" stop-color="#DFF6E7" stop-opacity="0"/>
<stop offset="0.855923" stop-color="#DFF6E7"/>
</linearGradient>
<linearGradient id="paint71_linear_3394_242398" x1="1587" y1="0" x2="-54" y2="0" gradientUnits="userSpaceOnUse">
<stop offset="0.216002" stop-color="#DFF6E7" stop-opacity="0"/>
<stop offset="0.855923" stop-color="#DFF6E7"/>
</linearGradient>
<linearGradient id="paint72_linear_3394_242398" x1="1587" y1="0" x2="-54" y2="0" gradientUnits="userSpaceOnUse">
<stop offset="0.216002" stop-color="#DFF6E7" stop-opacity="0"/>
<stop offset="0.855923" stop-color="#DFF6E7"/>
</linearGradient>
<linearGradient id="paint73_linear_3394_242398" x1="1587" y1="0" x2="-54" y2="0" gradientUnits="userSpaceOnUse">
<stop offset="0.216002" stop-color="#DFF6E7" stop-opacity="0"/>
<stop offset="0.855923" stop-color="#DFF6E7"/>
</linearGradient>
<linearGradient id="paint74_linear_3394_242398" x1="1587" y1="0" x2="-54" y2="0" gradientUnits="userSpaceOnUse">
<stop offset="0.216002" stop-color="#DFF6E7" stop-opacity="0"/>
<stop offset="0.855923" stop-color="#DFF6E7"/>
</linearGradient>
<linearGradient id="paint75_linear_3394_242398" x1="1587" y1="0" x2="-54" y2="0" gradientUnits="userSpaceOnUse">
<stop offset="0.216002" stop-color="#DFF6E7" stop-opacity="0"/>
<stop offset="0.855923" stop-color="#DFF6E7"/>
</linearGradient>
<linearGradient id="paint76_linear_3394_242398" x1="1587" y1="0" x2="-54" y2="0" gradientUnits="userSpaceOnUse">
<stop offset="0.216002" stop-color="#DFF6E7" stop-opacity="0"/>
<stop offset="0.855923" stop-color="#DFF6E7"/>
</linearGradient>
<linearGradient id="paint77_linear_3394_242398" x1="1587" y1="0" x2="-54" y2="0" gradientUnits="userSpaceOnUse">
<stop offset="0.216002" stop-color="#DFF6E7" stop-opacity="0"/>
<stop offset="0.855923" stop-color="#DFF6E7"/>
</linearGradient>
<linearGradient id="paint78_linear_3394_242398" x1="1587" y1="0" x2="-54" y2="0" gradientUnits="userSpaceOnUse">
<stop offset="0.216002" stop-color="#DFF6E7" stop-opacity="0"/>
<stop offset="0.855923" stop-color="#DFF6E7"/>
</linearGradient>
<linearGradient id="paint79_linear_3394_242398" x1="1587" y1="0" x2="-54" y2="0" gradientUnits="userSpaceOnUse">
<stop offset="0.216002" stop-color="#DFF6E7" stop-opacity="0"/>
<stop offset="0.855923" stop-color="#DFF6E7"/>
</linearGradient>
<linearGradient id="paint80_linear_3394_242398" x1="1587" y1="0" x2="-54" y2="0" gradientUnits="userSpaceOnUse">
<stop offset="0.216002" stop-color="#DFF6E7" stop-opacity="0"/>
<stop offset="0.855923" stop-color="#DFF6E7"/>
</linearGradient>
<linearGradient id="paint81_linear_3394_242398" x1="1587" y1="0" x2="-54" y2="0" gradientUnits="userSpaceOnUse">
<stop offset="0.216002" stop-color="#DFF6E7" stop-opacity="0"/>
<stop offset="0.855923" stop-color="#DFF6E7"/>
</linearGradient>
<linearGradient id="paint82_linear_3394_242398" x1="1587" y1="0" x2="-54" y2="0" gradientUnits="userSpaceOnUse">
<stop offset="0.216002" stop-color="#DFF6E7" stop-opacity="0"/>
<stop offset="0.855923" stop-color="#DFF6E7"/>
</linearGradient>
<linearGradient id="paint83_linear_3394_242398" x1="1587" y1="0" x2="-54" y2="0" gradientUnits="userSpaceOnUse">
<stop offset="0.216002" stop-color="#DFF6E7" stop-opacity="0"/>
<stop offset="0.855923" stop-color="#DFF6E7"/>
</linearGradient>
<linearGradient id="paint84_linear_3394_242398" x1="1587" y1="0" x2="-54" y2="0" gradientUnits="userSpaceOnUse">
<stop offset="0.216002" stop-color="#DFF6E7" stop-opacity="0"/>
<stop offset="0.855923" stop-color="#DFF6E7"/>
</linearGradient>
<linearGradient id="paint85_linear_3394_242398" x1="1587" y1="0" x2="-54" y2="0" gradientUnits="userSpaceOnUse">
<stop offset="0.216002" stop-color="#DFF6E7" stop-opacity="0"/>
<stop offset="0.855923" stop-color="#DFF6E7"/>
</linearGradient>
<linearGradient id="paint86_linear_3394_242398" x1="1587" y1="0" x2="-54" y2="0" gradientUnits="userSpaceOnUse">
<stop offset="0.216002" stop-color="#DFF6E7" stop-opacity="0"/>
<stop offset="0.855923" stop-color="#DFF6E7"/>
</linearGradient>
<linearGradient id="paint87_linear_3394_242398" x1="1587" y1="0" x2="-54" y2="0" gradientUnits="userSpaceOnUse">
<stop offset="0.216002" stop-color="#DFF6E7" stop-opacity="0"/>
<stop offset="0.855923" stop-color="#DFF6E7"/>
</linearGradient>
<linearGradient id="paint88_linear_3394_242398" x1="1587" y1="0" x2="-54" y2="0" gradientUnits="userSpaceOnUse">
<stop offset="0.216002" stop-color="#DFF6E7" stop-opacity="0"/>
<stop offset="0.855923" stop-color="#DFF6E7"/>
</linearGradient>
<linearGradient id="paint89_linear_3394_242398" x1="1587" y1="0" x2="-54" y2="0" gradientUnits="userSpaceOnUse">
<stop offset="0.216002" stop-color="#DFF6E7" stop-opacity="0"/>
<stop offset="0.855923" stop-color="#DFF6E7"/>
</linearGradient>
</defs>
</svg>
